G04 #@! TF.GenerationSoftware,KiCad,Pcbnew,(5.1.4)-1*
G04 #@! TF.CreationDate,2020-11-08T14:39:36-05:00*
G04 #@! TF.ProjectId,ai03-pcb-guide,61693033-2d70-4636-922d-67756964652e,rev?*
G04 #@! TF.SameCoordinates,Original*
G04 #@! TF.FileFunction,Copper,L1,Top*
G04 #@! TF.FilePolarity,Positive*
%FSLAX46Y46*%
G04 Gerber Fmt 4.6, Leading zero omitted, Abs format (unit mm)*
G04 Created by KiCad (PCBNEW (5.1.4)-1) date 2020-11-08 14:39:36*
%MOMM*%
%LPD*%
G04 APERTURE LIST*
%ADD10O,1.700000X2.700000*%
%ADD11C,2.250000*%
%ADD12C,2.250000*%
%ADD13C,0.800000*%
%ADD14C,0.381000*%
%ADD15C,0.254000*%
G04 APERTURE END LIST*
D10*
X87218500Y-116300250D03*
X94518500Y-116300250D03*
X94518500Y-120800250D03*
X87218500Y-120800250D03*
D11*
X151424000Y-139002000D03*
X150769001Y-139732000D03*
D12*
X150114000Y-140462000D02*
X151424002Y-139002000D01*
D11*
X156464000Y-137922000D03*
X156444000Y-138212000D03*
D12*
X156424000Y-138502000D02*
X156464000Y-137922000D01*
D11*
X132374000Y-139002000D03*
X131719001Y-139732000D03*
D12*
X131064000Y-140462000D02*
X132374002Y-139002000D01*
D11*
X137414000Y-137922000D03*
X137394000Y-138212000D03*
D12*
X137374000Y-138502000D02*
X137414000Y-137922000D01*
D11*
X151424000Y-119952000D03*
X150769001Y-120682000D03*
D12*
X150114000Y-121412000D02*
X151424002Y-119952000D01*
D11*
X156464000Y-118872000D03*
X156444000Y-119162000D03*
D12*
X156424000Y-119452000D02*
X156464000Y-118872000D01*
D11*
X132374000Y-119952000D03*
X131719001Y-120682000D03*
D12*
X131064000Y-121412000D02*
X132374002Y-119952000D01*
D11*
X137414000Y-118872000D03*
X137394000Y-119162000D03*
D12*
X137374000Y-119452000D02*
X137414000Y-118872000D01*
D13*
X124556046Y-132920279D03*
X120650000Y-145256250D03*
X106362500Y-139700000D03*
X106362500Y-134937500D03*
X102393750Y-126206250D03*
X98384750Y-144993750D03*
X98933000Y-129540000D03*
D14*
X124556046Y-132920279D02*
X124556046Y-144399796D01*
X124556046Y-144399796D02*
X123699592Y-145256250D01*
X123699592Y-145256250D02*
X120650000Y-145256250D01*
X106362500Y-139700000D02*
X106362500Y-134937500D01*
X106362500Y-134937500D02*
X106362500Y-130175000D01*
X106362500Y-130175000D02*
X102393750Y-126206250D01*
X106362500Y-139700000D02*
X111918750Y-145256250D01*
X111918750Y-145256250D02*
X120650000Y-145256250D01*
D15*
X131762500Y-138390500D02*
X132374000Y-139002000D01*
X131762500Y-123031250D02*
X131762500Y-138390500D01*
X131064000Y-121412000D02*
X131064000Y-122332750D01*
X131064000Y-122332750D02*
X131762500Y-123031250D01*
X150812500Y-138390500D02*
X151424000Y-139002000D01*
X150812500Y-123825000D02*
X150812500Y-138390500D01*
X150114000Y-121412000D02*
X150114000Y-123126500D01*
X150114000Y-123126500D02*
X150812500Y-123825000D01*
X98384750Y-144428065D02*
X98933000Y-143879815D01*
X98384750Y-144993750D02*
X98384750Y-144428065D01*
X98933000Y-143879815D02*
X98933000Y-129540000D01*
M02*
