M48
; DRILL file {KiCad (5.1.4)-1} date 11/8/2020 2:39:41 PM
; FORMAT={-:-/ absolute / inch / decimal}
; #@! TF.CreationDate,2020-11-08T14:39:41-05:00
; #@! TF.GenerationSoftware,Kicad,Pcbnew,(5.1.4)-1
; #@! TF.FileFunction,Plated,1,2,PTH
FMAT,2
INCH
T1C0.0157
T2C0.0276
T3C0.0579
%
G90
G05
T1
X3.8734Y-5.7084
X3.895Y-5.1
X4.0312Y-4.9688
X4.1875Y-5.3125
X4.1875Y-5.5
X4.75Y-5.7188
X4.9038Y-5.2331
T3
X5.16Y-5.53
X5.2116Y-5.4725
X5.4084Y-5.4528
X5.41Y-5.43
X5.91Y-5.53
X5.9616Y-5.4725
X6.1584Y-5.4528
X6.16Y-5.43
X5.91Y-4.78
X5.9616Y-4.7225
X6.1584Y-4.7028
X6.16Y-4.68
X5.16Y-4.78
X5.2116Y-4.7225
X5.4084Y-4.7028
X5.41Y-4.68
T2
G00X3.4338Y-4.5551
M15
G01X3.4338Y-4.6024
M16
G05
G00X3.4338Y-4.7323
M15
G01X3.4338Y-4.7795
M16
G05
G00X3.7212Y-4.5551
M15
G01X3.7212Y-4.6024
M16
G05
G00X3.7212Y-4.7323
M15
G01X3.7212Y-4.7795
M16
G05
T0
M30
