G04 #@! TF.GenerationSoftware,KiCad,Pcbnew,(5.1.4)-1*
G04 #@! TF.CreationDate,2020-11-08T14:39:36-05:00*
G04 #@! TF.ProjectId,ai03-pcb-guide,61693033-2d70-4636-922d-67756964652e,rev?*
G04 #@! TF.SameCoordinates,Original*
G04 #@! TF.FileFunction,Soldermask,Bot*
G04 #@! TF.FilePolarity,Negative*
%FSLAX46Y46*%
G04 Gerber Fmt 4.6, Leading zero omitted, Abs format (unit mm)*
G04 Created by KiCad (PCBNEW (5.1.4)-1) date 2020-11-08 14:39:36*
%MOMM*%
%LPD*%
G04 APERTURE LIST*
%ADD10C,0.100000*%
G04 APERTURE END LIST*
D10*
G36*
X95332250Y-149294750D02*
G01*
X93430250Y-149294750D01*
X93430250Y-148092750D01*
X95332250Y-148092750D01*
X95332250Y-149294750D01*
X95332250Y-149294750D01*
G37*
G36*
X89132250Y-149294750D02*
G01*
X87230250Y-149294750D01*
X87230250Y-148092750D01*
X89132250Y-148092750D01*
X89132250Y-149294750D01*
X89132250Y-149294750D01*
G37*
G36*
X118625718Y-144319315D02*
G01*
X118664388Y-144331046D01*
X118700027Y-144350096D01*
X118731267Y-144375733D01*
X118756904Y-144406973D01*
X118775954Y-144442612D01*
X118787685Y-144481282D01*
X118792250Y-144527638D01*
X118792250Y-145603862D01*
X118787685Y-145650218D01*
X118775954Y-145688888D01*
X118756904Y-145724527D01*
X118731267Y-145755767D01*
X118700027Y-145781404D01*
X118664388Y-145800454D01*
X118625718Y-145812185D01*
X118579362Y-145816750D01*
X117928138Y-145816750D01*
X117881782Y-145812185D01*
X117843112Y-145800454D01*
X117807473Y-145781404D01*
X117776233Y-145755767D01*
X117750596Y-145724527D01*
X117731546Y-145688888D01*
X117719815Y-145650218D01*
X117715250Y-145603862D01*
X117715250Y-144527638D01*
X117719815Y-144481282D01*
X117731546Y-144442612D01*
X117750596Y-144406973D01*
X117776233Y-144375733D01*
X117807473Y-144350096D01*
X117843112Y-144331046D01*
X117881782Y-144319315D01*
X117928138Y-144314750D01*
X118579362Y-144314750D01*
X118625718Y-144319315D01*
X118625718Y-144319315D01*
G37*
G36*
X116750718Y-144319315D02*
G01*
X116789388Y-144331046D01*
X116825027Y-144350096D01*
X116856267Y-144375733D01*
X116881904Y-144406973D01*
X116900954Y-144442612D01*
X116912685Y-144481282D01*
X116917250Y-144527638D01*
X116917250Y-145603862D01*
X116912685Y-145650218D01*
X116900954Y-145688888D01*
X116881904Y-145724527D01*
X116856267Y-145755767D01*
X116825027Y-145781404D01*
X116789388Y-145800454D01*
X116750718Y-145812185D01*
X116704362Y-145816750D01*
X116053138Y-145816750D01*
X116006782Y-145812185D01*
X115968112Y-145800454D01*
X115932473Y-145781404D01*
X115901233Y-145755767D01*
X115875596Y-145724527D01*
X115856546Y-145688888D01*
X115844815Y-145650218D01*
X115840250Y-145603862D01*
X115840250Y-144527638D01*
X115844815Y-144481282D01*
X115856546Y-144442612D01*
X115875596Y-144406973D01*
X115901233Y-144375733D01*
X115932473Y-144350096D01*
X115968112Y-144331046D01*
X116006782Y-144319315D01*
X116053138Y-144314750D01*
X116704362Y-144314750D01*
X116750718Y-144319315D01*
X116750718Y-144319315D01*
G37*
G36*
X89132250Y-145594750D02*
G01*
X87230250Y-145594750D01*
X87230250Y-144392750D01*
X89132250Y-144392750D01*
X89132250Y-145594750D01*
X89132250Y-145594750D01*
G37*
G36*
X95332250Y-145594750D02*
G01*
X93430250Y-145594750D01*
X93430250Y-144392750D01*
X95332250Y-144392750D01*
X95332250Y-145594750D01*
X95332250Y-145594750D01*
G37*
G36*
X162512500Y-145153000D02*
G01*
X161210500Y-145153000D01*
X161210500Y-144151000D01*
X162512500Y-144151000D01*
X162512500Y-145153000D01*
X162512500Y-145153000D01*
G37*
G36*
X143462500Y-145153000D02*
G01*
X142160500Y-145153000D01*
X142160500Y-144151000D01*
X143462500Y-144151000D01*
X143462500Y-145153000D01*
X143462500Y-145153000D01*
G37*
G36*
X135470474Y-141035684D02*
G01*
X135688474Y-141125983D01*
X135842623Y-141189833D01*
X136177548Y-141413623D01*
X136462377Y-141698452D01*
X136686167Y-142033377D01*
X136733075Y-142146623D01*
X136840316Y-142405526D01*
X136918900Y-142800594D01*
X136918900Y-143203406D01*
X136840316Y-143598474D01*
X136789451Y-143721272D01*
X136686167Y-143970623D01*
X136462377Y-144305548D01*
X136177548Y-144590377D01*
X135842623Y-144814167D01*
X135688474Y-144878017D01*
X135470474Y-144968316D01*
X135075406Y-145046900D01*
X134672594Y-145046900D01*
X134277526Y-144968316D01*
X134059526Y-144878017D01*
X133905377Y-144814167D01*
X133570452Y-144590377D01*
X133285623Y-144305548D01*
X133061833Y-143970623D01*
X132958549Y-143721272D01*
X132907684Y-143598474D01*
X132829100Y-143203406D01*
X132829100Y-142800594D01*
X132907684Y-142405526D01*
X133014925Y-142146623D01*
X133061833Y-142033377D01*
X133285623Y-141698452D01*
X133570452Y-141413623D01*
X133905377Y-141189833D01*
X134059526Y-141125983D01*
X134277526Y-141035684D01*
X134672594Y-140957100D01*
X135075406Y-140957100D01*
X135470474Y-141035684D01*
X135470474Y-141035684D01*
G37*
G36*
X154520474Y-141035684D02*
G01*
X154738474Y-141125983D01*
X154892623Y-141189833D01*
X155227548Y-141413623D01*
X155512377Y-141698452D01*
X155736167Y-142033377D01*
X155783075Y-142146623D01*
X155890316Y-142405526D01*
X155968900Y-142800594D01*
X155968900Y-143203406D01*
X155890316Y-143598474D01*
X155839451Y-143721272D01*
X155736167Y-143970623D01*
X155512377Y-144305548D01*
X155227548Y-144590377D01*
X154892623Y-144814167D01*
X154738474Y-144878017D01*
X154520474Y-144968316D01*
X154125406Y-145046900D01*
X153722594Y-145046900D01*
X153327526Y-144968316D01*
X153109526Y-144878017D01*
X152955377Y-144814167D01*
X152620452Y-144590377D01*
X152335623Y-144305548D01*
X152111833Y-143970623D01*
X152008549Y-143721272D01*
X151957684Y-143598474D01*
X151879100Y-143203406D01*
X151879100Y-142800594D01*
X151957684Y-142405526D01*
X152064925Y-142146623D01*
X152111833Y-142033377D01*
X152335623Y-141698452D01*
X152620452Y-141413623D01*
X152955377Y-141189833D01*
X153109526Y-141125983D01*
X153327526Y-141035684D01*
X153722594Y-140957100D01*
X154125406Y-140957100D01*
X154520474Y-141035684D01*
X154520474Y-141035684D01*
G37*
G36*
X130064104Y-142111585D02*
G01*
X130232626Y-142181389D01*
X130384291Y-142282728D01*
X130513272Y-142411709D01*
X130614611Y-142563374D01*
X130684415Y-142731896D01*
X130720000Y-142910797D01*
X130720000Y-143093203D01*
X130684415Y-143272104D01*
X130614611Y-143440626D01*
X130513272Y-143592291D01*
X130384291Y-143721272D01*
X130232626Y-143822611D01*
X130064104Y-143892415D01*
X129885203Y-143928000D01*
X129702797Y-143928000D01*
X129523896Y-143892415D01*
X129355374Y-143822611D01*
X129203709Y-143721272D01*
X129074728Y-143592291D01*
X128973389Y-143440626D01*
X128903585Y-143272104D01*
X128868000Y-143093203D01*
X128868000Y-142910797D01*
X128903585Y-142731896D01*
X128973389Y-142563374D01*
X129074728Y-142411709D01*
X129203709Y-142282728D01*
X129355374Y-142181389D01*
X129523896Y-142111585D01*
X129702797Y-142076000D01*
X129885203Y-142076000D01*
X130064104Y-142111585D01*
X130064104Y-142111585D01*
G37*
G36*
X159274104Y-142111585D02*
G01*
X159442626Y-142181389D01*
X159594291Y-142282728D01*
X159723272Y-142411709D01*
X159824611Y-142563374D01*
X159894415Y-142731896D01*
X159930000Y-142910797D01*
X159930000Y-143093203D01*
X159894415Y-143272104D01*
X159824611Y-143440626D01*
X159723272Y-143592291D01*
X159594291Y-143721272D01*
X159442626Y-143822611D01*
X159274104Y-143892415D01*
X159095203Y-143928000D01*
X158912797Y-143928000D01*
X158733896Y-143892415D01*
X158565374Y-143822611D01*
X158413709Y-143721272D01*
X158284728Y-143592291D01*
X158183389Y-143440626D01*
X158113585Y-143272104D01*
X158078000Y-143093203D01*
X158078000Y-142910797D01*
X158113585Y-142731896D01*
X158183389Y-142563374D01*
X158284728Y-142411709D01*
X158413709Y-142282728D01*
X158565374Y-142181389D01*
X158733896Y-142111585D01*
X158912797Y-142076000D01*
X159095203Y-142076000D01*
X159274104Y-142111585D01*
X159274104Y-142111585D01*
G37*
G36*
X149114104Y-142111585D02*
G01*
X149282626Y-142181389D01*
X149434291Y-142282728D01*
X149563272Y-142411709D01*
X149664611Y-142563374D01*
X149734415Y-142731896D01*
X149770000Y-142910797D01*
X149770000Y-143093203D01*
X149734415Y-143272104D01*
X149664611Y-143440626D01*
X149563272Y-143592291D01*
X149434291Y-143721272D01*
X149282626Y-143822611D01*
X149114104Y-143892415D01*
X148935203Y-143928000D01*
X148752797Y-143928000D01*
X148573896Y-143892415D01*
X148405374Y-143822611D01*
X148253709Y-143721272D01*
X148124728Y-143592291D01*
X148023389Y-143440626D01*
X147953585Y-143272104D01*
X147918000Y-143093203D01*
X147918000Y-142910797D01*
X147953585Y-142731896D01*
X148023389Y-142563374D01*
X148124728Y-142411709D01*
X148253709Y-142282728D01*
X148405374Y-142181389D01*
X148573896Y-142111585D01*
X148752797Y-142076000D01*
X148935203Y-142076000D01*
X149114104Y-142111585D01*
X149114104Y-142111585D01*
G37*
G36*
X140224104Y-142111585D02*
G01*
X140392626Y-142181389D01*
X140544291Y-142282728D01*
X140673272Y-142411709D01*
X140774611Y-142563374D01*
X140844415Y-142731896D01*
X140880000Y-142910797D01*
X140880000Y-143093203D01*
X140844415Y-143272104D01*
X140774611Y-143440626D01*
X140673272Y-143592291D01*
X140544291Y-143721272D01*
X140392626Y-143822611D01*
X140224104Y-143892415D01*
X140045203Y-143928000D01*
X139862797Y-143928000D01*
X139683896Y-143892415D01*
X139515374Y-143822611D01*
X139363709Y-143721272D01*
X139234728Y-143592291D01*
X139133389Y-143440626D01*
X139063585Y-143272104D01*
X139028000Y-143093203D01*
X139028000Y-142910797D01*
X139063585Y-142731896D01*
X139133389Y-142563374D01*
X139234728Y-142411709D01*
X139363709Y-142282728D01*
X139515374Y-142181389D01*
X139683896Y-142111585D01*
X139862797Y-142076000D01*
X140045203Y-142076000D01*
X140224104Y-142111585D01*
X140224104Y-142111585D01*
G37*
G36*
X104851468Y-142008565D02*
G01*
X104890138Y-142020296D01*
X104925777Y-142039346D01*
X104957017Y-142064983D01*
X104982654Y-142096223D01*
X105001704Y-142131862D01*
X105013435Y-142170532D01*
X105018000Y-142216888D01*
X105018000Y-142868112D01*
X105013435Y-142914468D01*
X105001704Y-142953138D01*
X104982654Y-142988777D01*
X104957017Y-143020017D01*
X104925777Y-143045654D01*
X104890138Y-143064704D01*
X104851468Y-143076435D01*
X104805112Y-143081000D01*
X103728888Y-143081000D01*
X103682532Y-143076435D01*
X103643862Y-143064704D01*
X103608223Y-143045654D01*
X103576983Y-143020017D01*
X103551346Y-142988777D01*
X103532296Y-142953138D01*
X103520565Y-142914468D01*
X103516000Y-142868112D01*
X103516000Y-142216888D01*
X103520565Y-142170532D01*
X103532296Y-142131862D01*
X103551346Y-142096223D01*
X103576983Y-142064983D01*
X103608223Y-142039346D01*
X103643862Y-142020296D01*
X103682532Y-142008565D01*
X103728888Y-142004000D01*
X104805112Y-142004000D01*
X104851468Y-142008565D01*
X104851468Y-142008565D01*
G37*
G36*
X118626000Y-142232250D02*
G01*
X109974000Y-142232250D01*
X109974000Y-140630250D01*
X118626000Y-140630250D01*
X118626000Y-142232250D01*
X118626000Y-142232250D01*
G37*
G36*
X123647468Y-141119565D02*
G01*
X123686138Y-141131296D01*
X123721777Y-141150346D01*
X123753017Y-141175983D01*
X123778654Y-141207223D01*
X123797704Y-141242862D01*
X123809435Y-141281532D01*
X123814000Y-141327888D01*
X123814000Y-141979112D01*
X123809435Y-142025468D01*
X123797704Y-142064138D01*
X123778654Y-142099777D01*
X123753017Y-142131017D01*
X123721777Y-142156654D01*
X123686138Y-142175704D01*
X123647468Y-142187435D01*
X123601112Y-142192000D01*
X122524888Y-142192000D01*
X122478532Y-142187435D01*
X122439862Y-142175704D01*
X122404223Y-142156654D01*
X122372983Y-142131017D01*
X122347346Y-142099777D01*
X122328296Y-142064138D01*
X122316565Y-142025468D01*
X122312000Y-141979112D01*
X122312000Y-141327888D01*
X122316565Y-141281532D01*
X122328296Y-141242862D01*
X122347346Y-141207223D01*
X122372983Y-141175983D01*
X122404223Y-141150346D01*
X122439862Y-141131296D01*
X122478532Y-141119565D01*
X122524888Y-141115000D01*
X123601112Y-141115000D01*
X123647468Y-141119565D01*
X123647468Y-141119565D01*
G37*
G36*
X162512500Y-141853000D02*
G01*
X161210500Y-141853000D01*
X161210500Y-140851000D01*
X162512500Y-140851000D01*
X162512500Y-141853000D01*
X162512500Y-141853000D01*
G37*
G36*
X143462500Y-141853000D02*
G01*
X142160500Y-141853000D01*
X142160500Y-140851000D01*
X143462500Y-140851000D01*
X143462500Y-141853000D01*
X143462500Y-141853000D01*
G37*
G36*
X151447205Y-137825881D02*
G01*
X151452645Y-137826000D01*
X151539828Y-137826000D01*
X151556097Y-137829236D01*
X151574956Y-137831515D01*
X151591532Y-137832246D01*
X151676223Y-137853010D01*
X151681518Y-137854184D01*
X151767027Y-137871193D01*
X151782362Y-137877545D01*
X151800401Y-137883455D01*
X151816521Y-137887407D01*
X151895504Y-137924280D01*
X151900494Y-137926477D01*
X151981045Y-137959842D01*
X151994841Y-137969060D01*
X152011393Y-137978382D01*
X152026426Y-137985400D01*
X152096694Y-138036971D01*
X152101192Y-138040122D01*
X152173656Y-138088541D01*
X152185383Y-138100268D01*
X152199809Y-138112648D01*
X152213179Y-138122461D01*
X152213180Y-138122462D01*
X152272021Y-138186733D01*
X152275829Y-138190714D01*
X152337459Y-138252344D01*
X152346674Y-138266135D01*
X152358396Y-138281078D01*
X152369605Y-138293321D01*
X152414799Y-138367874D01*
X152417746Y-138372501D01*
X152466158Y-138444955D01*
X152472505Y-138460277D01*
X152481092Y-138477231D01*
X152489691Y-138491417D01*
X152519478Y-138573368D01*
X152521452Y-138578448D01*
X152554807Y-138658973D01*
X152554807Y-138658974D01*
X152558041Y-138675233D01*
X152563158Y-138693542D01*
X152568825Y-138709134D01*
X152582055Y-138795345D01*
X152583001Y-138800713D01*
X152600000Y-138886173D01*
X152600000Y-138902752D01*
X152601444Y-138921692D01*
X152603963Y-138938104D01*
X152600120Y-139025249D01*
X152600000Y-139030689D01*
X152600000Y-139117825D01*
X152596766Y-139134083D01*
X152594488Y-139152941D01*
X152593756Y-139169531D01*
X152572988Y-139254237D01*
X152571812Y-139259537D01*
X152554807Y-139345027D01*
X152548457Y-139360357D01*
X152542549Y-139378393D01*
X152538595Y-139394520D01*
X152501711Y-139473526D01*
X152499511Y-139478523D01*
X152466158Y-139559045D01*
X152456944Y-139572835D01*
X152447622Y-139589387D01*
X152440602Y-139604424D01*
X152389011Y-139674720D01*
X152385866Y-139679210D01*
X152337461Y-139751654D01*
X152280460Y-139808655D01*
X152275811Y-139813563D01*
X151838718Y-140300704D01*
X150950723Y-141290376D01*
X150822679Y-141407602D01*
X150723630Y-141467646D01*
X150624583Y-141527689D01*
X150406866Y-141606823D01*
X150177895Y-141641961D01*
X149946470Y-141631754D01*
X149721481Y-141576593D01*
X149616727Y-141527689D01*
X149511579Y-141478602D01*
X149414838Y-141407602D01*
X149324823Y-141341539D01*
X149201855Y-141207223D01*
X149168398Y-141170679D01*
X149086564Y-141035685D01*
X149048311Y-140972583D01*
X148969177Y-140754866D01*
X148934039Y-140525895D01*
X148944246Y-140294470D01*
X148999407Y-140069481D01*
X149050972Y-139959028D01*
X149097398Y-139859580D01*
X149097400Y-139859577D01*
X149200114Y-139719622D01*
X149955245Y-138878027D01*
X150486787Y-138285621D01*
X150497681Y-138271589D01*
X150510539Y-138252346D01*
X150567573Y-138195312D01*
X150572223Y-138190403D01*
X150587278Y-138173624D01*
X150608701Y-138154011D01*
X150612682Y-138150203D01*
X150674346Y-138088539D01*
X150688143Y-138079320D01*
X150703102Y-138067585D01*
X150715321Y-138056398D01*
X150747385Y-138036961D01*
X150789830Y-138011231D01*
X150794421Y-138008308D01*
X150866955Y-137959842D01*
X150882300Y-137953486D01*
X150899248Y-137944901D01*
X150913416Y-137936312D01*
X150913417Y-137936312D01*
X150913418Y-137936311D01*
X150995312Y-137906545D01*
X151000410Y-137904563D01*
X151080973Y-137871193D01*
X151097252Y-137867955D01*
X151115542Y-137862844D01*
X151131135Y-137857177D01*
X151217300Y-137843954D01*
X151222663Y-137843009D01*
X151308173Y-137826000D01*
X151324766Y-137826000D01*
X151343709Y-137824555D01*
X151360106Y-137822039D01*
X151447205Y-137825881D01*
X151447205Y-137825881D01*
G37*
G36*
X132397205Y-137825881D02*
G01*
X132402645Y-137826000D01*
X132489828Y-137826000D01*
X132506097Y-137829236D01*
X132524956Y-137831515D01*
X132541532Y-137832246D01*
X132626223Y-137853010D01*
X132631518Y-137854184D01*
X132717027Y-137871193D01*
X132732362Y-137877545D01*
X132750401Y-137883455D01*
X132766521Y-137887407D01*
X132845504Y-137924280D01*
X132850494Y-137926477D01*
X132931045Y-137959842D01*
X132944841Y-137969060D01*
X132961393Y-137978382D01*
X132976426Y-137985400D01*
X133046694Y-138036971D01*
X133051192Y-138040122D01*
X133123656Y-138088541D01*
X133135383Y-138100268D01*
X133149809Y-138112648D01*
X133163179Y-138122461D01*
X133163180Y-138122462D01*
X133222021Y-138186733D01*
X133225829Y-138190714D01*
X133287459Y-138252344D01*
X133296674Y-138266135D01*
X133308396Y-138281078D01*
X133319605Y-138293321D01*
X133364799Y-138367874D01*
X133367746Y-138372501D01*
X133416158Y-138444955D01*
X133422505Y-138460277D01*
X133431092Y-138477231D01*
X133439691Y-138491417D01*
X133469478Y-138573368D01*
X133471452Y-138578448D01*
X133504807Y-138658973D01*
X133504807Y-138658974D01*
X133508041Y-138675233D01*
X133513158Y-138693542D01*
X133518825Y-138709134D01*
X133532055Y-138795345D01*
X133533001Y-138800713D01*
X133550000Y-138886173D01*
X133550000Y-138902752D01*
X133551444Y-138921692D01*
X133553963Y-138938104D01*
X133550120Y-139025249D01*
X133550000Y-139030689D01*
X133550000Y-139117825D01*
X133546766Y-139134083D01*
X133544488Y-139152941D01*
X133543756Y-139169531D01*
X133522988Y-139254237D01*
X133521812Y-139259537D01*
X133504807Y-139345027D01*
X133498457Y-139360357D01*
X133492549Y-139378393D01*
X133488595Y-139394520D01*
X133451711Y-139473526D01*
X133449511Y-139478523D01*
X133416158Y-139559045D01*
X133406944Y-139572835D01*
X133397622Y-139589387D01*
X133390602Y-139604424D01*
X133339011Y-139674720D01*
X133335866Y-139679210D01*
X133287461Y-139751654D01*
X133230460Y-139808655D01*
X133225811Y-139813563D01*
X132788718Y-140300704D01*
X131900723Y-141290376D01*
X131772679Y-141407602D01*
X131673630Y-141467646D01*
X131574583Y-141527689D01*
X131356866Y-141606823D01*
X131127895Y-141641961D01*
X130896470Y-141631754D01*
X130671481Y-141576593D01*
X130566727Y-141527689D01*
X130461579Y-141478602D01*
X130364838Y-141407602D01*
X130274823Y-141341539D01*
X130151855Y-141207223D01*
X130118398Y-141170679D01*
X130036564Y-141035685D01*
X129998311Y-140972583D01*
X129919177Y-140754866D01*
X129884039Y-140525895D01*
X129894246Y-140294470D01*
X129949407Y-140069481D01*
X130000972Y-139959028D01*
X130047398Y-139859580D01*
X130047400Y-139859577D01*
X130150114Y-139719622D01*
X130905245Y-138878027D01*
X131436787Y-138285621D01*
X131447681Y-138271589D01*
X131460539Y-138252346D01*
X131517573Y-138195312D01*
X131522223Y-138190403D01*
X131537278Y-138173624D01*
X131558701Y-138154011D01*
X131562682Y-138150203D01*
X131624346Y-138088539D01*
X131638143Y-138079320D01*
X131653102Y-138067585D01*
X131665321Y-138056398D01*
X131697385Y-138036961D01*
X131739830Y-138011231D01*
X131744421Y-138008308D01*
X131816955Y-137959842D01*
X131832300Y-137953486D01*
X131849248Y-137944901D01*
X131863416Y-137936312D01*
X131863417Y-137936312D01*
X131863418Y-137936311D01*
X131945312Y-137906545D01*
X131950410Y-137904563D01*
X132030973Y-137871193D01*
X132047252Y-137867955D01*
X132065542Y-137862844D01*
X132081135Y-137857177D01*
X132167300Y-137843954D01*
X132172663Y-137843009D01*
X132258173Y-137826000D01*
X132274766Y-137826000D01*
X132293709Y-137824555D01*
X132310106Y-137822039D01*
X132397205Y-137825881D01*
X132397205Y-137825881D01*
G37*
G36*
X104851468Y-140133565D02*
G01*
X104890138Y-140145296D01*
X104925777Y-140164346D01*
X104957017Y-140189983D01*
X104982654Y-140221223D01*
X105001704Y-140256862D01*
X105013435Y-140295532D01*
X105018000Y-140341888D01*
X105018000Y-140993112D01*
X105013435Y-141039468D01*
X105001704Y-141078138D01*
X104982654Y-141113777D01*
X104957017Y-141145017D01*
X104925777Y-141170654D01*
X104890138Y-141189704D01*
X104851468Y-141201435D01*
X104805112Y-141206000D01*
X103728888Y-141206000D01*
X103682532Y-141201435D01*
X103643862Y-141189704D01*
X103608223Y-141170654D01*
X103576983Y-141145017D01*
X103551346Y-141113777D01*
X103532296Y-141078138D01*
X103520565Y-141039468D01*
X103516000Y-140993112D01*
X103516000Y-140341888D01*
X103520565Y-140295532D01*
X103532296Y-140256862D01*
X103551346Y-140221223D01*
X103576983Y-140189983D01*
X103608223Y-140164346D01*
X103643862Y-140145296D01*
X103682532Y-140133565D01*
X103728888Y-140129000D01*
X104805112Y-140129000D01*
X104851468Y-140133565D01*
X104851468Y-140133565D01*
G37*
G36*
X123647468Y-139244565D02*
G01*
X123686138Y-139256296D01*
X123721777Y-139275346D01*
X123753017Y-139300983D01*
X123778654Y-139332223D01*
X123797704Y-139367862D01*
X123809435Y-139406532D01*
X123814000Y-139452888D01*
X123814000Y-140104112D01*
X123809435Y-140150468D01*
X123797704Y-140189138D01*
X123778654Y-140224777D01*
X123753017Y-140256017D01*
X123721777Y-140281654D01*
X123686138Y-140300704D01*
X123647468Y-140312435D01*
X123601112Y-140317000D01*
X122524888Y-140317000D01*
X122478532Y-140312435D01*
X122439862Y-140300704D01*
X122404223Y-140281654D01*
X122372983Y-140256017D01*
X122347346Y-140224777D01*
X122328296Y-140189138D01*
X122316565Y-140150468D01*
X122312000Y-140104112D01*
X122312000Y-139452888D01*
X122316565Y-139406532D01*
X122328296Y-139367862D01*
X122347346Y-139332223D01*
X122372983Y-139300983D01*
X122404223Y-139275346D01*
X122439862Y-139256296D01*
X122478532Y-139244565D01*
X122524888Y-139240000D01*
X123601112Y-139240000D01*
X123647468Y-139244565D01*
X123647468Y-139244565D01*
G37*
G36*
X109401000Y-140057250D02*
G01*
X107799000Y-140057250D01*
X107799000Y-131405250D01*
X109401000Y-131405250D01*
X109401000Y-140057250D01*
X109401000Y-140057250D01*
G37*
G36*
X120801000Y-140057250D02*
G01*
X119199000Y-140057250D01*
X119199000Y-131405250D01*
X120801000Y-131405250D01*
X120801000Y-140057250D01*
X120801000Y-140057250D01*
G37*
G36*
X156552127Y-136744261D02*
G01*
X156572900Y-136746000D01*
X156579827Y-136746000D01*
X156674754Y-136764882D01*
X156678348Y-136765542D01*
X156773730Y-136781624D01*
X156780203Y-136784085D01*
X156800228Y-136789841D01*
X156807027Y-136791193D01*
X156869414Y-136817034D01*
X156896443Y-136828230D01*
X156899844Y-136829581D01*
X156990255Y-136863961D01*
X156996127Y-136867640D01*
X157014636Y-136877187D01*
X157021045Y-136879842D01*
X157101563Y-136933642D01*
X157104554Y-136935578D01*
X157186557Y-136986959D01*
X157191584Y-136991700D01*
X157207896Y-137004691D01*
X157213652Y-137008537D01*
X157282110Y-137076995D01*
X157284689Y-137079499D01*
X157355090Y-137145889D01*
X157359095Y-137151519D01*
X157372559Y-137167444D01*
X157377459Y-137172344D01*
X157431244Y-137252839D01*
X157433291Y-137255807D01*
X157489380Y-137334645D01*
X157492214Y-137340958D01*
X157502308Y-137359193D01*
X157506158Y-137364955D01*
X157543220Y-137454430D01*
X157544624Y-137457685D01*
X157584265Y-137545973D01*
X157585815Y-137552725D01*
X157592152Y-137572562D01*
X157594807Y-137578973D01*
X157610377Y-137657250D01*
X157613692Y-137673917D01*
X157614438Y-137677401D01*
X157636098Y-137771751D01*
X157636098Y-137771754D01*
X157636300Y-137778654D01*
X157638647Y-137799370D01*
X157640000Y-137806174D01*
X157640000Y-137902986D01*
X157640053Y-137906584D01*
X157641188Y-137945277D01*
X157640295Y-137958225D01*
X157640000Y-137966797D01*
X157640000Y-138037826D01*
X157634081Y-138067585D01*
X157633604Y-138069979D01*
X157631500Y-138085750D01*
X157593238Y-138640545D01*
X157564376Y-138811730D01*
X157482038Y-139028255D01*
X157359041Y-139224557D01*
X157200111Y-139393090D01*
X157011355Y-139527380D01*
X156800027Y-139622265D01*
X156574249Y-139674098D01*
X156342698Y-139680889D01*
X156342697Y-139680889D01*
X156297012Y-139673186D01*
X156114270Y-139642376D01*
X155897745Y-139560038D01*
X155701443Y-139437041D01*
X155532910Y-139278111D01*
X155398620Y-139089355D01*
X155303735Y-138878027D01*
X155251902Y-138652249D01*
X155246812Y-138478723D01*
X155287704Y-137885794D01*
X155288000Y-137877196D01*
X155288000Y-137806175D01*
X155306882Y-137711250D01*
X155307544Y-137707645D01*
X155313231Y-137673917D01*
X155323624Y-137612270D01*
X155326085Y-137605799D01*
X155331842Y-137585767D01*
X155333193Y-137578974D01*
X155335843Y-137572576D01*
X155370264Y-137489476D01*
X155371553Y-137486230D01*
X155405962Y-137395745D01*
X155409636Y-137389881D01*
X155419187Y-137371365D01*
X155421842Y-137364955D01*
X155475657Y-137284415D01*
X155477577Y-137281449D01*
X155528959Y-137199443D01*
X155533711Y-137194404D01*
X155546689Y-137178107D01*
X155550537Y-137172348D01*
X155618993Y-137103892D01*
X155621546Y-137101262D01*
X155642023Y-137079548D01*
X155687889Y-137030910D01*
X155693521Y-137026903D01*
X155709447Y-137013438D01*
X155714346Y-137008539D01*
X155794824Y-136954766D01*
X155797806Y-136952710D01*
X155876645Y-136896620D01*
X155882955Y-136893787D01*
X155901194Y-136883691D01*
X155906951Y-136879844D01*
X155906954Y-136879843D01*
X155906955Y-136879842D01*
X155996429Y-136842781D01*
X155999687Y-136841375D01*
X156087973Y-136801735D01*
X156094725Y-136800185D01*
X156114562Y-136793848D01*
X156120973Y-136791193D01*
X156215899Y-136772311D01*
X156219446Y-136771551D01*
X156313751Y-136749901D01*
X156316130Y-136749831D01*
X156320665Y-136749698D01*
X156341381Y-136747351D01*
X156348174Y-136746000D01*
X156444959Y-136746000D01*
X156448584Y-136745947D01*
X156545302Y-136743110D01*
X156552127Y-136744261D01*
X156552127Y-136744261D01*
G37*
G36*
X137502127Y-136744261D02*
G01*
X137522900Y-136746000D01*
X137529827Y-136746000D01*
X137624754Y-136764882D01*
X137628348Y-136765542D01*
X137723730Y-136781624D01*
X137730203Y-136784085D01*
X137750228Y-136789841D01*
X137757027Y-136791193D01*
X137819414Y-136817034D01*
X137846443Y-136828230D01*
X137849844Y-136829581D01*
X137940255Y-136863961D01*
X137946127Y-136867640D01*
X137964636Y-136877187D01*
X137971045Y-136879842D01*
X138051563Y-136933642D01*
X138054554Y-136935578D01*
X138136557Y-136986959D01*
X138141584Y-136991700D01*
X138157896Y-137004691D01*
X138163652Y-137008537D01*
X138232110Y-137076995D01*
X138234689Y-137079499D01*
X138305090Y-137145889D01*
X138309095Y-137151519D01*
X138322559Y-137167444D01*
X138327459Y-137172344D01*
X138381244Y-137252839D01*
X138383291Y-137255807D01*
X138439380Y-137334645D01*
X138442214Y-137340958D01*
X138452308Y-137359193D01*
X138456158Y-137364955D01*
X138493220Y-137454430D01*
X138494624Y-137457685D01*
X138534265Y-137545973D01*
X138535815Y-137552725D01*
X138542152Y-137572562D01*
X138544807Y-137578973D01*
X138560377Y-137657250D01*
X138563692Y-137673917D01*
X138564438Y-137677401D01*
X138586098Y-137771751D01*
X138586098Y-137771754D01*
X138586300Y-137778654D01*
X138588647Y-137799370D01*
X138590000Y-137806174D01*
X138590000Y-137902986D01*
X138590053Y-137906584D01*
X138591188Y-137945277D01*
X138590295Y-137958225D01*
X138590000Y-137966797D01*
X138590000Y-138037826D01*
X138584081Y-138067585D01*
X138583604Y-138069979D01*
X138581500Y-138085750D01*
X138543238Y-138640545D01*
X138514376Y-138811730D01*
X138432038Y-139028255D01*
X138309041Y-139224557D01*
X138150111Y-139393090D01*
X137961355Y-139527380D01*
X137750027Y-139622265D01*
X137524249Y-139674098D01*
X137292698Y-139680889D01*
X137292697Y-139680889D01*
X137247012Y-139673186D01*
X137064270Y-139642376D01*
X136847745Y-139560038D01*
X136651443Y-139437041D01*
X136482910Y-139278111D01*
X136348620Y-139089355D01*
X136253735Y-138878027D01*
X136201902Y-138652249D01*
X136196812Y-138478723D01*
X136237704Y-137885794D01*
X136238000Y-137877196D01*
X136238000Y-137806175D01*
X136256882Y-137711250D01*
X136257544Y-137707645D01*
X136263231Y-137673917D01*
X136273624Y-137612270D01*
X136276085Y-137605799D01*
X136281842Y-137585767D01*
X136283193Y-137578974D01*
X136285843Y-137572576D01*
X136320264Y-137489476D01*
X136321553Y-137486230D01*
X136355962Y-137395745D01*
X136359636Y-137389881D01*
X136369187Y-137371365D01*
X136371842Y-137364955D01*
X136425657Y-137284415D01*
X136427577Y-137281449D01*
X136478959Y-137199443D01*
X136483711Y-137194404D01*
X136496689Y-137178107D01*
X136500537Y-137172348D01*
X136568993Y-137103892D01*
X136571546Y-137101262D01*
X136592023Y-137079548D01*
X136637889Y-137030910D01*
X136643521Y-137026903D01*
X136659447Y-137013438D01*
X136664346Y-137008539D01*
X136744824Y-136954766D01*
X136747806Y-136952710D01*
X136826645Y-136896620D01*
X136832955Y-136893787D01*
X136851194Y-136883691D01*
X136856951Y-136879844D01*
X136856954Y-136879843D01*
X136856955Y-136879842D01*
X136946429Y-136842781D01*
X136949687Y-136841375D01*
X137037973Y-136801735D01*
X137044725Y-136800185D01*
X137064562Y-136793848D01*
X137070973Y-136791193D01*
X137165899Y-136772311D01*
X137169446Y-136771551D01*
X137263751Y-136749901D01*
X137266130Y-136749831D01*
X137270665Y-136749698D01*
X137291381Y-136747351D01*
X137298174Y-136746000D01*
X137394959Y-136746000D01*
X137398584Y-136745947D01*
X137495302Y-136743110D01*
X137502127Y-136744261D01*
X137502127Y-136744261D01*
G37*
G36*
X103036468Y-133619565D02*
G01*
X103075138Y-133631296D01*
X103110777Y-133650346D01*
X103142017Y-133675983D01*
X103167654Y-133707223D01*
X103186704Y-133742862D01*
X103198435Y-133781532D01*
X103203000Y-133827888D01*
X103203000Y-134904112D01*
X103198435Y-134950468D01*
X103186704Y-134989138D01*
X103167654Y-135024777D01*
X103142017Y-135056017D01*
X103110777Y-135081654D01*
X103075138Y-135100704D01*
X103036468Y-135112435D01*
X102990112Y-135117000D01*
X102338888Y-135117000D01*
X102292532Y-135112435D01*
X102253862Y-135100704D01*
X102218223Y-135081654D01*
X102186983Y-135056017D01*
X102161346Y-135024777D01*
X102142296Y-134989138D01*
X102130565Y-134950468D01*
X102126000Y-134904112D01*
X102126000Y-133827888D01*
X102130565Y-133781532D01*
X102142296Y-133742862D01*
X102161346Y-133707223D01*
X102186983Y-133675983D01*
X102218223Y-133650346D01*
X102253862Y-133631296D01*
X102292532Y-133619565D01*
X102338888Y-133615000D01*
X102990112Y-133615000D01*
X103036468Y-133619565D01*
X103036468Y-133619565D01*
G37*
G36*
X101161468Y-133619565D02*
G01*
X101200138Y-133631296D01*
X101235777Y-133650346D01*
X101267017Y-133675983D01*
X101292654Y-133707223D01*
X101311704Y-133742862D01*
X101323435Y-133781532D01*
X101328000Y-133827888D01*
X101328000Y-134904112D01*
X101323435Y-134950468D01*
X101311704Y-134989138D01*
X101292654Y-135024777D01*
X101267017Y-135056017D01*
X101235777Y-135081654D01*
X101200138Y-135100704D01*
X101161468Y-135112435D01*
X101115112Y-135117000D01*
X100463888Y-135117000D01*
X100417532Y-135112435D01*
X100378862Y-135100704D01*
X100343223Y-135081654D01*
X100311983Y-135056017D01*
X100286346Y-135024777D01*
X100267296Y-134989138D01*
X100255565Y-134950468D01*
X100251000Y-134904112D01*
X100251000Y-133827888D01*
X100255565Y-133781532D01*
X100267296Y-133742862D01*
X100286346Y-133707223D01*
X100311983Y-133675983D01*
X100343223Y-133650346D01*
X100378862Y-133631296D01*
X100417532Y-133619565D01*
X100463888Y-133615000D01*
X101115112Y-133615000D01*
X101161468Y-133619565D01*
X101161468Y-133619565D01*
G37*
G36*
X123488718Y-132388315D02*
G01*
X123527388Y-132400046D01*
X123563027Y-132419096D01*
X123594267Y-132444733D01*
X123619904Y-132475973D01*
X123638954Y-132511612D01*
X123650685Y-132550282D01*
X123655250Y-132596638D01*
X123655250Y-133247862D01*
X123650685Y-133294218D01*
X123638954Y-133332888D01*
X123619904Y-133368527D01*
X123594267Y-133399767D01*
X123563027Y-133425404D01*
X123527388Y-133444454D01*
X123488718Y-133456185D01*
X123442362Y-133460750D01*
X122366138Y-133460750D01*
X122319782Y-133456185D01*
X122281112Y-133444454D01*
X122245473Y-133425404D01*
X122214233Y-133399767D01*
X122188596Y-133368527D01*
X122169546Y-133332888D01*
X122157815Y-133294218D01*
X122153250Y-133247862D01*
X122153250Y-132596638D01*
X122157815Y-132550282D01*
X122169546Y-132511612D01*
X122188596Y-132475973D01*
X122214233Y-132444733D01*
X122245473Y-132419096D01*
X122281112Y-132400046D01*
X122319782Y-132388315D01*
X122366138Y-132383750D01*
X123442362Y-132383750D01*
X123488718Y-132388315D01*
X123488718Y-132388315D01*
G37*
G36*
X85699854Y-130903347D02*
G01*
X85736394Y-130914432D01*
X85770071Y-130932433D01*
X85799591Y-130956659D01*
X85823817Y-130986179D01*
X85841818Y-131019856D01*
X85852903Y-131056396D01*
X85857250Y-131100538D01*
X85857250Y-132049462D01*
X85852903Y-132093604D01*
X85841818Y-132130144D01*
X85823817Y-132163821D01*
X85799591Y-132193341D01*
X85770071Y-132217567D01*
X85736394Y-132235568D01*
X85699854Y-132246653D01*
X85655712Y-132251000D01*
X84206788Y-132251000D01*
X84162646Y-132246653D01*
X84126106Y-132235568D01*
X84092429Y-132217567D01*
X84062909Y-132193341D01*
X84038683Y-132163821D01*
X84020682Y-132130144D01*
X84009597Y-132093604D01*
X84005250Y-132049462D01*
X84005250Y-131100538D01*
X84009597Y-131056396D01*
X84020682Y-131019856D01*
X84038683Y-130986179D01*
X84062909Y-130956659D01*
X84092429Y-130932433D01*
X84126106Y-130914432D01*
X84162646Y-130903347D01*
X84206788Y-130899000D01*
X85655712Y-130899000D01*
X85699854Y-130903347D01*
X85699854Y-130903347D01*
G37*
G36*
X123488718Y-130513315D02*
G01*
X123527388Y-130525046D01*
X123563027Y-130544096D01*
X123594267Y-130569733D01*
X123619904Y-130600973D01*
X123638954Y-130636612D01*
X123650685Y-130675282D01*
X123655250Y-130721638D01*
X123655250Y-131372862D01*
X123650685Y-131419218D01*
X123638954Y-131457888D01*
X123619904Y-131493527D01*
X123594267Y-131524767D01*
X123563027Y-131550404D01*
X123527388Y-131569454D01*
X123488718Y-131581185D01*
X123442362Y-131585750D01*
X122366138Y-131585750D01*
X122319782Y-131581185D01*
X122281112Y-131569454D01*
X122245473Y-131550404D01*
X122214233Y-131524767D01*
X122188596Y-131493527D01*
X122169546Y-131457888D01*
X122157815Y-131419218D01*
X122153250Y-131372862D01*
X122153250Y-130721638D01*
X122157815Y-130675282D01*
X122169546Y-130636612D01*
X122188596Y-130600973D01*
X122214233Y-130569733D01*
X122245473Y-130544096D01*
X122281112Y-130525046D01*
X122319782Y-130513315D01*
X122366138Y-130508750D01*
X123442362Y-130508750D01*
X123488718Y-130513315D01*
X123488718Y-130513315D01*
G37*
G36*
X118626000Y-130832250D02*
G01*
X109974000Y-130832250D01*
X109974000Y-129230250D01*
X118626000Y-129230250D01*
X118626000Y-130832250D01*
X118626000Y-130832250D01*
G37*
G36*
X104724468Y-128800565D02*
G01*
X104763138Y-128812296D01*
X104798777Y-128831346D01*
X104830017Y-128856983D01*
X104855654Y-128888223D01*
X104874704Y-128923862D01*
X104886435Y-128962532D01*
X104891000Y-129008888D01*
X104891000Y-129660112D01*
X104886435Y-129706468D01*
X104874704Y-129745138D01*
X104855654Y-129780777D01*
X104830017Y-129812017D01*
X104798777Y-129837654D01*
X104763138Y-129856704D01*
X104724468Y-129868435D01*
X104678112Y-129873000D01*
X103601888Y-129873000D01*
X103555532Y-129868435D01*
X103516862Y-129856704D01*
X103481223Y-129837654D01*
X103449983Y-129812017D01*
X103424346Y-129780777D01*
X103405296Y-129745138D01*
X103393565Y-129706468D01*
X103389000Y-129660112D01*
X103389000Y-129008888D01*
X103393565Y-128962532D01*
X103405296Y-128923862D01*
X103424346Y-128888223D01*
X103449983Y-128856983D01*
X103481223Y-128831346D01*
X103516862Y-128812296D01*
X103555532Y-128800565D01*
X103601888Y-128796000D01*
X104678112Y-128796000D01*
X104724468Y-128800565D01*
X104724468Y-128800565D01*
G37*
G36*
X101549468Y-128800565D02*
G01*
X101588138Y-128812296D01*
X101623777Y-128831346D01*
X101655017Y-128856983D01*
X101680654Y-128888223D01*
X101699704Y-128923862D01*
X101711435Y-128962532D01*
X101716000Y-129008888D01*
X101716000Y-129660112D01*
X101711435Y-129706468D01*
X101699704Y-129745138D01*
X101680654Y-129780777D01*
X101655017Y-129812017D01*
X101623777Y-129837654D01*
X101588138Y-129856704D01*
X101549468Y-129868435D01*
X101503112Y-129873000D01*
X100426888Y-129873000D01*
X100380532Y-129868435D01*
X100341862Y-129856704D01*
X100306223Y-129837654D01*
X100274983Y-129812017D01*
X100249346Y-129780777D01*
X100230296Y-129745138D01*
X100218565Y-129706468D01*
X100214000Y-129660112D01*
X100214000Y-129008888D01*
X100218565Y-128962532D01*
X100230296Y-128923862D01*
X100249346Y-128888223D01*
X100274983Y-128856983D01*
X100306223Y-128831346D01*
X100341862Y-128812296D01*
X100380532Y-128800565D01*
X100426888Y-128796000D01*
X101503112Y-128796000D01*
X101549468Y-128800565D01*
X101549468Y-128800565D01*
G37*
G36*
X85699854Y-128103347D02*
G01*
X85736394Y-128114432D01*
X85770071Y-128132433D01*
X85799591Y-128156659D01*
X85823817Y-128186179D01*
X85841818Y-128219856D01*
X85852903Y-128256396D01*
X85857250Y-128300538D01*
X85857250Y-129249462D01*
X85852903Y-129293604D01*
X85841818Y-129330144D01*
X85823817Y-129363821D01*
X85799591Y-129393341D01*
X85770071Y-129417567D01*
X85736394Y-129435568D01*
X85699854Y-129446653D01*
X85655712Y-129451000D01*
X84206788Y-129451000D01*
X84162646Y-129446653D01*
X84126106Y-129435568D01*
X84092429Y-129417567D01*
X84062909Y-129393341D01*
X84038683Y-129363821D01*
X84020682Y-129330144D01*
X84009597Y-129293604D01*
X84005250Y-129249462D01*
X84005250Y-128300538D01*
X84009597Y-128256396D01*
X84020682Y-128219856D01*
X84038683Y-128186179D01*
X84062909Y-128156659D01*
X84092429Y-128132433D01*
X84126106Y-128114432D01*
X84162646Y-128103347D01*
X84206788Y-128099000D01*
X85655712Y-128099000D01*
X85699854Y-128103347D01*
X85699854Y-128103347D01*
G37*
G36*
X92659468Y-127403565D02*
G01*
X92698138Y-127415296D01*
X92733777Y-127434346D01*
X92765017Y-127459983D01*
X92790654Y-127491223D01*
X92809704Y-127526862D01*
X92821435Y-127565532D01*
X92826000Y-127611888D01*
X92826000Y-128263112D01*
X92821435Y-128309468D01*
X92809704Y-128348138D01*
X92790654Y-128383777D01*
X92765017Y-128415017D01*
X92733777Y-128440654D01*
X92698138Y-128459704D01*
X92659468Y-128471435D01*
X92613112Y-128476000D01*
X91536888Y-128476000D01*
X91490532Y-128471435D01*
X91451862Y-128459704D01*
X91416223Y-128440654D01*
X91384983Y-128415017D01*
X91359346Y-128383777D01*
X91340296Y-128348138D01*
X91328565Y-128309468D01*
X91324000Y-128263112D01*
X91324000Y-127611888D01*
X91328565Y-127565532D01*
X91340296Y-127526862D01*
X91359346Y-127491223D01*
X91384983Y-127459983D01*
X91416223Y-127434346D01*
X91451862Y-127415296D01*
X91490532Y-127403565D01*
X91536888Y-127399000D01*
X92613112Y-127399000D01*
X92659468Y-127403565D01*
X92659468Y-127403565D01*
G37*
G36*
X89484468Y-127403565D02*
G01*
X89523138Y-127415296D01*
X89558777Y-127434346D01*
X89590017Y-127459983D01*
X89615654Y-127491223D01*
X89634704Y-127526862D01*
X89646435Y-127565532D01*
X89651000Y-127611888D01*
X89651000Y-128263112D01*
X89646435Y-128309468D01*
X89634704Y-128348138D01*
X89615654Y-128383777D01*
X89590017Y-128415017D01*
X89558777Y-128440654D01*
X89523138Y-128459704D01*
X89484468Y-128471435D01*
X89438112Y-128476000D01*
X88361888Y-128476000D01*
X88315532Y-128471435D01*
X88276862Y-128459704D01*
X88241223Y-128440654D01*
X88209983Y-128415017D01*
X88184346Y-128383777D01*
X88165296Y-128348138D01*
X88153565Y-128309468D01*
X88149000Y-128263112D01*
X88149000Y-127611888D01*
X88153565Y-127565532D01*
X88165296Y-127526862D01*
X88184346Y-127491223D01*
X88209983Y-127459983D01*
X88241223Y-127434346D01*
X88276862Y-127415296D01*
X88315532Y-127403565D01*
X88361888Y-127399000D01*
X89438112Y-127399000D01*
X89484468Y-127403565D01*
X89484468Y-127403565D01*
G37*
G36*
X104724468Y-126925565D02*
G01*
X104763138Y-126937296D01*
X104798777Y-126956346D01*
X104830017Y-126981983D01*
X104855654Y-127013223D01*
X104874704Y-127048862D01*
X104886435Y-127087532D01*
X104891000Y-127133888D01*
X104891000Y-127785112D01*
X104886435Y-127831468D01*
X104874704Y-127870138D01*
X104855654Y-127905777D01*
X104830017Y-127937017D01*
X104798777Y-127962654D01*
X104763138Y-127981704D01*
X104724468Y-127993435D01*
X104678112Y-127998000D01*
X103601888Y-127998000D01*
X103555532Y-127993435D01*
X103516862Y-127981704D01*
X103481223Y-127962654D01*
X103449983Y-127937017D01*
X103424346Y-127905777D01*
X103405296Y-127870138D01*
X103393565Y-127831468D01*
X103389000Y-127785112D01*
X103389000Y-127133888D01*
X103393565Y-127087532D01*
X103405296Y-127048862D01*
X103424346Y-127013223D01*
X103449983Y-126981983D01*
X103481223Y-126956346D01*
X103516862Y-126937296D01*
X103555532Y-126925565D01*
X103601888Y-126921000D01*
X104678112Y-126921000D01*
X104724468Y-126925565D01*
X104724468Y-126925565D01*
G37*
G36*
X101549468Y-126925565D02*
G01*
X101588138Y-126937296D01*
X101623777Y-126956346D01*
X101655017Y-126981983D01*
X101680654Y-127013223D01*
X101699704Y-127048862D01*
X101711435Y-127087532D01*
X101716000Y-127133888D01*
X101716000Y-127785112D01*
X101711435Y-127831468D01*
X101699704Y-127870138D01*
X101680654Y-127905777D01*
X101655017Y-127937017D01*
X101623777Y-127962654D01*
X101588138Y-127981704D01*
X101549468Y-127993435D01*
X101503112Y-127998000D01*
X100426888Y-127998000D01*
X100380532Y-127993435D01*
X100341862Y-127981704D01*
X100306223Y-127962654D01*
X100274983Y-127937017D01*
X100249346Y-127905777D01*
X100230296Y-127870138D01*
X100218565Y-127831468D01*
X100214000Y-127785112D01*
X100214000Y-127133888D01*
X100218565Y-127087532D01*
X100230296Y-127048862D01*
X100249346Y-127013223D01*
X100274983Y-126981983D01*
X100306223Y-126956346D01*
X100341862Y-126937296D01*
X100380532Y-126925565D01*
X100426888Y-126921000D01*
X101503112Y-126921000D01*
X101549468Y-126925565D01*
X101549468Y-126925565D01*
G37*
G36*
X92659468Y-125528565D02*
G01*
X92698138Y-125540296D01*
X92733777Y-125559346D01*
X92765017Y-125584983D01*
X92790654Y-125616223D01*
X92809704Y-125651862D01*
X92821435Y-125690532D01*
X92826000Y-125736888D01*
X92826000Y-126388112D01*
X92821435Y-126434468D01*
X92809704Y-126473138D01*
X92790654Y-126508777D01*
X92765017Y-126540017D01*
X92733777Y-126565654D01*
X92698138Y-126584704D01*
X92659468Y-126596435D01*
X92613112Y-126601000D01*
X91536888Y-126601000D01*
X91490532Y-126596435D01*
X91451862Y-126584704D01*
X91416223Y-126565654D01*
X91384983Y-126540017D01*
X91359346Y-126508777D01*
X91340296Y-126473138D01*
X91328565Y-126434468D01*
X91324000Y-126388112D01*
X91324000Y-125736888D01*
X91328565Y-125690532D01*
X91340296Y-125651862D01*
X91359346Y-125616223D01*
X91384983Y-125584983D01*
X91416223Y-125559346D01*
X91451862Y-125540296D01*
X91490532Y-125528565D01*
X91536888Y-125524000D01*
X92613112Y-125524000D01*
X92659468Y-125528565D01*
X92659468Y-125528565D01*
G37*
G36*
X89484468Y-125528565D02*
G01*
X89523138Y-125540296D01*
X89558777Y-125559346D01*
X89590017Y-125584983D01*
X89615654Y-125616223D01*
X89634704Y-125651862D01*
X89646435Y-125690532D01*
X89651000Y-125736888D01*
X89651000Y-126388112D01*
X89646435Y-126434468D01*
X89634704Y-126473138D01*
X89615654Y-126508777D01*
X89590017Y-126540017D01*
X89558777Y-126565654D01*
X89523138Y-126584704D01*
X89484468Y-126596435D01*
X89438112Y-126601000D01*
X88361888Y-126601000D01*
X88315532Y-126596435D01*
X88276862Y-126584704D01*
X88241223Y-126565654D01*
X88209983Y-126540017D01*
X88184346Y-126508777D01*
X88165296Y-126473138D01*
X88153565Y-126434468D01*
X88149000Y-126388112D01*
X88149000Y-125736888D01*
X88153565Y-125690532D01*
X88165296Y-125651862D01*
X88184346Y-125616223D01*
X88209983Y-125584983D01*
X88241223Y-125559346D01*
X88276862Y-125540296D01*
X88315532Y-125528565D01*
X88361888Y-125524000D01*
X89438112Y-125524000D01*
X89484468Y-125528565D01*
X89484468Y-125528565D01*
G37*
G36*
X162512500Y-126103000D02*
G01*
X161210500Y-126103000D01*
X161210500Y-125101000D01*
X162512500Y-125101000D01*
X162512500Y-126103000D01*
X162512500Y-126103000D01*
G37*
G36*
X143526000Y-126103000D02*
G01*
X142224000Y-126103000D01*
X142224000Y-125101000D01*
X143526000Y-125101000D01*
X143526000Y-126103000D01*
X143526000Y-126103000D01*
G37*
G36*
X154520474Y-121985684D02*
G01*
X154683059Y-122053029D01*
X154892623Y-122139833D01*
X155227548Y-122363623D01*
X155512377Y-122648452D01*
X155736167Y-122983377D01*
X155768562Y-123061586D01*
X155890316Y-123355526D01*
X155968900Y-123750594D01*
X155968900Y-124153406D01*
X155890316Y-124548474D01*
X155839451Y-124671272D01*
X155736167Y-124920623D01*
X155512377Y-125255548D01*
X155227548Y-125540377D01*
X154892623Y-125764167D01*
X154822410Y-125793250D01*
X154520474Y-125918316D01*
X154125406Y-125996900D01*
X153722594Y-125996900D01*
X153327526Y-125918316D01*
X153025590Y-125793250D01*
X152955377Y-125764167D01*
X152620452Y-125540377D01*
X152335623Y-125255548D01*
X152111833Y-124920623D01*
X152008549Y-124671272D01*
X151957684Y-124548474D01*
X151879100Y-124153406D01*
X151879100Y-123750594D01*
X151957684Y-123355526D01*
X152079438Y-123061586D01*
X152111833Y-122983377D01*
X152335623Y-122648452D01*
X152620452Y-122363623D01*
X152955377Y-122139833D01*
X153164941Y-122053029D01*
X153327526Y-121985684D01*
X153722594Y-121907100D01*
X154125406Y-121907100D01*
X154520474Y-121985684D01*
X154520474Y-121985684D01*
G37*
G36*
X135470474Y-121985684D02*
G01*
X135633059Y-122053029D01*
X135842623Y-122139833D01*
X136177548Y-122363623D01*
X136462377Y-122648452D01*
X136686167Y-122983377D01*
X136718562Y-123061586D01*
X136840316Y-123355526D01*
X136918900Y-123750594D01*
X136918900Y-124153406D01*
X136840316Y-124548474D01*
X136789451Y-124671272D01*
X136686167Y-124920623D01*
X136462377Y-125255548D01*
X136177548Y-125540377D01*
X135842623Y-125764167D01*
X135772410Y-125793250D01*
X135470474Y-125918316D01*
X135075406Y-125996900D01*
X134672594Y-125996900D01*
X134277526Y-125918316D01*
X133975590Y-125793250D01*
X133905377Y-125764167D01*
X133570452Y-125540377D01*
X133285623Y-125255548D01*
X133061833Y-124920623D01*
X132958549Y-124671272D01*
X132907684Y-124548474D01*
X132829100Y-124153406D01*
X132829100Y-123750594D01*
X132907684Y-123355526D01*
X133029438Y-123061586D01*
X133061833Y-122983377D01*
X133285623Y-122648452D01*
X133570452Y-122363623D01*
X133905377Y-122139833D01*
X134114941Y-122053029D01*
X134277526Y-121985684D01*
X134672594Y-121907100D01*
X135075406Y-121907100D01*
X135470474Y-121985684D01*
X135470474Y-121985684D01*
G37*
G36*
X130064104Y-123061585D02*
G01*
X130232626Y-123131389D01*
X130384291Y-123232728D01*
X130513272Y-123361709D01*
X130614611Y-123513374D01*
X130684415Y-123681896D01*
X130720000Y-123860797D01*
X130720000Y-124043203D01*
X130684415Y-124222104D01*
X130614611Y-124390626D01*
X130513272Y-124542291D01*
X130384291Y-124671272D01*
X130232626Y-124772611D01*
X130064104Y-124842415D01*
X129885203Y-124878000D01*
X129702797Y-124878000D01*
X129523896Y-124842415D01*
X129355374Y-124772611D01*
X129203709Y-124671272D01*
X129074728Y-124542291D01*
X128973389Y-124390626D01*
X128903585Y-124222104D01*
X128868000Y-124043203D01*
X128868000Y-123860797D01*
X128903585Y-123681896D01*
X128973389Y-123513374D01*
X129074728Y-123361709D01*
X129203709Y-123232728D01*
X129355374Y-123131389D01*
X129523896Y-123061585D01*
X129702797Y-123026000D01*
X129885203Y-123026000D01*
X130064104Y-123061585D01*
X130064104Y-123061585D01*
G37*
G36*
X140224104Y-123061585D02*
G01*
X140392626Y-123131389D01*
X140544291Y-123232728D01*
X140673272Y-123361709D01*
X140774611Y-123513374D01*
X140844415Y-123681896D01*
X140880000Y-123860797D01*
X140880000Y-124043203D01*
X140844415Y-124222104D01*
X140774611Y-124390626D01*
X140673272Y-124542291D01*
X140544291Y-124671272D01*
X140392626Y-124772611D01*
X140224104Y-124842415D01*
X140045203Y-124878000D01*
X139862797Y-124878000D01*
X139683896Y-124842415D01*
X139515374Y-124772611D01*
X139363709Y-124671272D01*
X139234728Y-124542291D01*
X139133389Y-124390626D01*
X139063585Y-124222104D01*
X139028000Y-124043203D01*
X139028000Y-123860797D01*
X139063585Y-123681896D01*
X139133389Y-123513374D01*
X139234728Y-123361709D01*
X139363709Y-123232728D01*
X139515374Y-123131389D01*
X139683896Y-123061585D01*
X139862797Y-123026000D01*
X140045203Y-123026000D01*
X140224104Y-123061585D01*
X140224104Y-123061585D01*
G37*
G36*
X149114104Y-123061585D02*
G01*
X149282626Y-123131389D01*
X149434291Y-123232728D01*
X149563272Y-123361709D01*
X149664611Y-123513374D01*
X149734415Y-123681896D01*
X149770000Y-123860797D01*
X149770000Y-124043203D01*
X149734415Y-124222104D01*
X149664611Y-124390626D01*
X149563272Y-124542291D01*
X149434291Y-124671272D01*
X149282626Y-124772611D01*
X149114104Y-124842415D01*
X148935203Y-124878000D01*
X148752797Y-124878000D01*
X148573896Y-124842415D01*
X148405374Y-124772611D01*
X148253709Y-124671272D01*
X148124728Y-124542291D01*
X148023389Y-124390626D01*
X147953585Y-124222104D01*
X147918000Y-124043203D01*
X147918000Y-123860797D01*
X147953585Y-123681896D01*
X148023389Y-123513374D01*
X148124728Y-123361709D01*
X148253709Y-123232728D01*
X148405374Y-123131389D01*
X148573896Y-123061585D01*
X148752797Y-123026000D01*
X148935203Y-123026000D01*
X149114104Y-123061585D01*
X149114104Y-123061585D01*
G37*
G36*
X159274104Y-123061585D02*
G01*
X159442626Y-123131389D01*
X159594291Y-123232728D01*
X159723272Y-123361709D01*
X159824611Y-123513374D01*
X159894415Y-123681896D01*
X159930000Y-123860797D01*
X159930000Y-124043203D01*
X159894415Y-124222104D01*
X159824611Y-124390626D01*
X159723272Y-124542291D01*
X159594291Y-124671272D01*
X159442626Y-124772611D01*
X159274104Y-124842415D01*
X159095203Y-124878000D01*
X158912797Y-124878000D01*
X158733896Y-124842415D01*
X158565374Y-124772611D01*
X158413709Y-124671272D01*
X158284728Y-124542291D01*
X158183389Y-124390626D01*
X158113585Y-124222104D01*
X158078000Y-124043203D01*
X158078000Y-123860797D01*
X158113585Y-123681896D01*
X158183389Y-123513374D01*
X158284728Y-123361709D01*
X158413709Y-123232728D01*
X158565374Y-123131389D01*
X158733896Y-123061585D01*
X158912797Y-123026000D01*
X159095203Y-123026000D01*
X159274104Y-123061585D01*
X159274104Y-123061585D01*
G37*
G36*
X117678468Y-123276065D02*
G01*
X117717138Y-123287796D01*
X117752777Y-123306846D01*
X117784017Y-123332483D01*
X117809654Y-123363723D01*
X117828704Y-123399362D01*
X117840435Y-123438032D01*
X117845000Y-123484388D01*
X117845000Y-124135612D01*
X117840435Y-124181968D01*
X117828704Y-124220638D01*
X117809654Y-124256277D01*
X117784017Y-124287517D01*
X117752777Y-124313154D01*
X117717138Y-124332204D01*
X117678468Y-124343935D01*
X117632112Y-124348500D01*
X116555888Y-124348500D01*
X116509532Y-124343935D01*
X116470862Y-124332204D01*
X116435223Y-124313154D01*
X116403983Y-124287517D01*
X116378346Y-124256277D01*
X116359296Y-124220638D01*
X116347565Y-124181968D01*
X116343000Y-124135612D01*
X116343000Y-123484388D01*
X116347565Y-123438032D01*
X116359296Y-123399362D01*
X116378346Y-123363723D01*
X116403983Y-123332483D01*
X116435223Y-123306846D01*
X116470862Y-123287796D01*
X116509532Y-123276065D01*
X116555888Y-123271500D01*
X117632112Y-123271500D01*
X117678468Y-123276065D01*
X117678468Y-123276065D01*
G37*
G36*
X115135000Y-124246500D02*
G01*
X113633000Y-124246500D01*
X113633000Y-122944500D01*
X115135000Y-122944500D01*
X115135000Y-124246500D01*
X115135000Y-124246500D01*
G37*
G36*
X112935000Y-124246500D02*
G01*
X111433000Y-124246500D01*
X111433000Y-122944500D01*
X112935000Y-122944500D01*
X112935000Y-124246500D01*
X112935000Y-124246500D01*
G37*
G36*
X109931468Y-123149065D02*
G01*
X109970138Y-123160796D01*
X110005777Y-123179846D01*
X110037017Y-123205483D01*
X110062654Y-123236723D01*
X110081704Y-123272362D01*
X110093435Y-123311032D01*
X110098000Y-123357388D01*
X110098000Y-124008612D01*
X110093435Y-124054968D01*
X110081704Y-124093638D01*
X110062654Y-124129277D01*
X110037017Y-124160517D01*
X110005777Y-124186154D01*
X109970138Y-124205204D01*
X109931468Y-124216935D01*
X109885112Y-124221500D01*
X108808888Y-124221500D01*
X108762532Y-124216935D01*
X108723862Y-124205204D01*
X108688223Y-124186154D01*
X108656983Y-124160517D01*
X108631346Y-124129277D01*
X108612296Y-124093638D01*
X108600565Y-124054968D01*
X108596000Y-124008612D01*
X108596000Y-123357388D01*
X108600565Y-123311032D01*
X108612296Y-123272362D01*
X108631346Y-123236723D01*
X108656983Y-123205483D01*
X108688223Y-123179846D01*
X108723862Y-123160796D01*
X108762532Y-123149065D01*
X108808888Y-123144500D01*
X109885112Y-123144500D01*
X109931468Y-123149065D01*
X109931468Y-123149065D01*
G37*
G36*
X143526000Y-122803000D02*
G01*
X142224000Y-122803000D01*
X142224000Y-121801000D01*
X143526000Y-121801000D01*
X143526000Y-122803000D01*
X143526000Y-122803000D01*
G37*
G36*
X162512500Y-122803000D02*
G01*
X161210500Y-122803000D01*
X161210500Y-121801000D01*
X162512500Y-121801000D01*
X162512500Y-122803000D01*
X162512500Y-122803000D01*
G37*
G36*
X151447205Y-118775881D02*
G01*
X151452645Y-118776000D01*
X151539828Y-118776000D01*
X151556097Y-118779236D01*
X151574956Y-118781515D01*
X151591532Y-118782246D01*
X151676223Y-118803010D01*
X151681518Y-118804184D01*
X151767027Y-118821193D01*
X151782362Y-118827545D01*
X151800401Y-118833455D01*
X151816521Y-118837407D01*
X151895504Y-118874280D01*
X151900494Y-118876477D01*
X151981045Y-118909842D01*
X151994841Y-118919060D01*
X152011393Y-118928382D01*
X152026426Y-118935400D01*
X152096694Y-118986971D01*
X152101192Y-118990122D01*
X152173656Y-119038541D01*
X152185383Y-119050268D01*
X152199809Y-119062648D01*
X152213179Y-119072461D01*
X152213180Y-119072462D01*
X152272021Y-119136733D01*
X152275829Y-119140714D01*
X152337459Y-119202344D01*
X152346674Y-119216135D01*
X152358396Y-119231078D01*
X152369605Y-119243321D01*
X152414799Y-119317874D01*
X152417746Y-119322501D01*
X152466158Y-119394955D01*
X152472505Y-119410277D01*
X152481092Y-119427231D01*
X152489691Y-119441417D01*
X152519478Y-119523368D01*
X152521452Y-119528448D01*
X152554807Y-119608973D01*
X152557846Y-119624250D01*
X152558041Y-119625233D01*
X152563158Y-119643542D01*
X152568825Y-119659134D01*
X152582055Y-119745345D01*
X152583001Y-119750713D01*
X152600000Y-119836173D01*
X152600000Y-119852752D01*
X152601444Y-119871692D01*
X152603963Y-119888104D01*
X152600120Y-119975249D01*
X152600000Y-119980689D01*
X152600000Y-120067825D01*
X152596766Y-120084083D01*
X152594488Y-120102941D01*
X152593756Y-120119531D01*
X152572988Y-120204237D01*
X152571812Y-120209537D01*
X152554807Y-120295027D01*
X152548457Y-120310357D01*
X152542549Y-120328393D01*
X152538595Y-120344520D01*
X152501711Y-120423526D01*
X152499511Y-120428523D01*
X152466158Y-120509045D01*
X152456944Y-120522835D01*
X152447622Y-120539387D01*
X152440602Y-120554424D01*
X152389011Y-120624720D01*
X152385866Y-120629210D01*
X152337461Y-120701654D01*
X152280460Y-120758655D01*
X152275811Y-120763563D01*
X151630837Y-121482388D01*
X150950723Y-122240376D01*
X150822679Y-122357602D01*
X150723630Y-122417646D01*
X150624583Y-122477689D01*
X150406866Y-122556823D01*
X150177895Y-122591961D01*
X149946470Y-122581754D01*
X149721481Y-122526593D01*
X149607754Y-122473500D01*
X149511579Y-122428602D01*
X149399711Y-122346500D01*
X149324823Y-122291539D01*
X149230227Y-122188213D01*
X149168398Y-122120679D01*
X149086564Y-121985685D01*
X149048311Y-121922583D01*
X148969177Y-121704866D01*
X148934039Y-121475895D01*
X148944246Y-121244470D01*
X148999407Y-121019481D01*
X149050972Y-120909028D01*
X149097398Y-120809580D01*
X149097400Y-120809577D01*
X149200114Y-120669622D01*
X149982852Y-119797259D01*
X150486787Y-119235621D01*
X150497681Y-119221589D01*
X150510539Y-119202346D01*
X150567573Y-119145312D01*
X150572223Y-119140403D01*
X150587278Y-119123624D01*
X150608701Y-119104011D01*
X150612682Y-119100203D01*
X150674346Y-119038539D01*
X150688143Y-119029320D01*
X150703102Y-119017585D01*
X150715321Y-119006398D01*
X150747385Y-118986961D01*
X150789830Y-118961231D01*
X150794421Y-118958308D01*
X150866955Y-118909842D01*
X150882300Y-118903486D01*
X150899248Y-118894901D01*
X150913416Y-118886312D01*
X150913417Y-118886312D01*
X150913418Y-118886311D01*
X150995312Y-118856545D01*
X151000410Y-118854563D01*
X151080973Y-118821193D01*
X151097252Y-118817955D01*
X151115542Y-118812844D01*
X151131135Y-118807177D01*
X151217300Y-118793954D01*
X151222663Y-118793009D01*
X151308173Y-118776000D01*
X151324766Y-118776000D01*
X151343709Y-118774555D01*
X151360106Y-118772039D01*
X151447205Y-118775881D01*
X151447205Y-118775881D01*
G37*
G36*
X132397205Y-118775881D02*
G01*
X132402645Y-118776000D01*
X132489828Y-118776000D01*
X132506097Y-118779236D01*
X132524956Y-118781515D01*
X132541532Y-118782246D01*
X132626223Y-118803010D01*
X132631518Y-118804184D01*
X132717027Y-118821193D01*
X132732362Y-118827545D01*
X132750401Y-118833455D01*
X132766521Y-118837407D01*
X132845504Y-118874280D01*
X132850494Y-118876477D01*
X132931045Y-118909842D01*
X132944841Y-118919060D01*
X132961393Y-118928382D01*
X132976426Y-118935400D01*
X133046694Y-118986971D01*
X133051192Y-118990122D01*
X133123656Y-119038541D01*
X133135383Y-119050268D01*
X133149809Y-119062648D01*
X133163179Y-119072461D01*
X133163180Y-119072462D01*
X133222021Y-119136733D01*
X133225829Y-119140714D01*
X133287459Y-119202344D01*
X133296674Y-119216135D01*
X133308396Y-119231078D01*
X133319605Y-119243321D01*
X133364799Y-119317874D01*
X133367746Y-119322501D01*
X133416158Y-119394955D01*
X133422505Y-119410277D01*
X133431092Y-119427231D01*
X133439691Y-119441417D01*
X133469478Y-119523368D01*
X133471452Y-119528448D01*
X133504807Y-119608973D01*
X133507846Y-119624250D01*
X133508041Y-119625233D01*
X133513158Y-119643542D01*
X133518825Y-119659134D01*
X133532055Y-119745345D01*
X133533001Y-119750713D01*
X133550000Y-119836173D01*
X133550000Y-119852752D01*
X133551444Y-119871692D01*
X133553963Y-119888104D01*
X133550120Y-119975249D01*
X133550000Y-119980689D01*
X133550000Y-120067825D01*
X133546766Y-120084083D01*
X133544488Y-120102941D01*
X133543756Y-120119531D01*
X133522988Y-120204237D01*
X133521812Y-120209537D01*
X133504807Y-120295027D01*
X133498457Y-120310357D01*
X133492549Y-120328393D01*
X133488595Y-120344520D01*
X133451711Y-120423526D01*
X133449511Y-120428523D01*
X133416158Y-120509045D01*
X133406944Y-120522835D01*
X133397622Y-120539387D01*
X133390602Y-120554424D01*
X133339011Y-120624720D01*
X133335866Y-120629210D01*
X133287461Y-120701654D01*
X133230460Y-120758655D01*
X133225811Y-120763563D01*
X132580837Y-121482388D01*
X131900723Y-122240376D01*
X131772679Y-122357602D01*
X131673630Y-122417646D01*
X131574583Y-122477689D01*
X131356866Y-122556823D01*
X131127895Y-122591961D01*
X130896470Y-122581754D01*
X130671481Y-122526593D01*
X130557754Y-122473500D01*
X130461579Y-122428602D01*
X130349711Y-122346500D01*
X130274823Y-122291539D01*
X130180227Y-122188213D01*
X130118398Y-122120679D01*
X130036564Y-121985685D01*
X129998311Y-121922583D01*
X129919177Y-121704866D01*
X129884039Y-121475895D01*
X129894246Y-121244470D01*
X129949407Y-121019481D01*
X130000972Y-120909028D01*
X130047398Y-120809580D01*
X130047400Y-120809577D01*
X130150114Y-120669622D01*
X130932852Y-119797259D01*
X131436787Y-119235621D01*
X131447681Y-119221589D01*
X131460539Y-119202346D01*
X131517573Y-119145312D01*
X131522223Y-119140403D01*
X131537278Y-119123624D01*
X131558701Y-119104011D01*
X131562682Y-119100203D01*
X131624346Y-119038539D01*
X131638143Y-119029320D01*
X131653102Y-119017585D01*
X131665321Y-119006398D01*
X131697385Y-118986961D01*
X131739830Y-118961231D01*
X131744421Y-118958308D01*
X131816955Y-118909842D01*
X131832300Y-118903486D01*
X131849248Y-118894901D01*
X131863416Y-118886312D01*
X131863417Y-118886312D01*
X131863418Y-118886311D01*
X131945312Y-118856545D01*
X131950410Y-118854563D01*
X132030973Y-118821193D01*
X132047252Y-118817955D01*
X132065542Y-118812844D01*
X132081135Y-118807177D01*
X132167300Y-118793954D01*
X132172663Y-118793009D01*
X132258173Y-118776000D01*
X132274766Y-118776000D01*
X132293709Y-118774555D01*
X132310106Y-118772039D01*
X132397205Y-118775881D01*
X132397205Y-118775881D01*
G37*
G36*
X115135000Y-122546500D02*
G01*
X113633000Y-122546500D01*
X113633000Y-121244500D01*
X115135000Y-121244500D01*
X115135000Y-122546500D01*
X115135000Y-122546500D01*
G37*
G36*
X112935000Y-122546500D02*
G01*
X111433000Y-122546500D01*
X111433000Y-121244500D01*
X112935000Y-121244500D01*
X112935000Y-122546500D01*
X112935000Y-122546500D01*
G37*
G36*
X117678468Y-121401065D02*
G01*
X117717138Y-121412796D01*
X117752777Y-121431846D01*
X117784017Y-121457483D01*
X117809654Y-121488723D01*
X117828704Y-121524362D01*
X117840435Y-121563032D01*
X117845000Y-121609388D01*
X117845000Y-122260612D01*
X117840435Y-122306968D01*
X117828704Y-122345638D01*
X117809654Y-122381277D01*
X117784017Y-122412517D01*
X117752777Y-122438154D01*
X117717138Y-122457204D01*
X117678468Y-122468935D01*
X117632112Y-122473500D01*
X116555888Y-122473500D01*
X116509532Y-122468935D01*
X116470862Y-122457204D01*
X116435223Y-122438154D01*
X116403983Y-122412517D01*
X116378346Y-122381277D01*
X116359296Y-122345638D01*
X116347565Y-122306968D01*
X116343000Y-122260612D01*
X116343000Y-121609388D01*
X116347565Y-121563032D01*
X116359296Y-121524362D01*
X116378346Y-121488723D01*
X116403983Y-121457483D01*
X116435223Y-121431846D01*
X116470862Y-121412796D01*
X116509532Y-121401065D01*
X116555888Y-121396500D01*
X117632112Y-121396500D01*
X117678468Y-121401065D01*
X117678468Y-121401065D01*
G37*
G36*
X109931468Y-121274065D02*
G01*
X109970138Y-121285796D01*
X110005777Y-121304846D01*
X110037017Y-121330483D01*
X110062654Y-121361723D01*
X110081704Y-121397362D01*
X110093435Y-121436032D01*
X110098000Y-121482388D01*
X110098000Y-122133612D01*
X110093435Y-122179968D01*
X110081704Y-122218638D01*
X110062654Y-122254277D01*
X110037017Y-122285517D01*
X110005777Y-122311154D01*
X109970138Y-122330204D01*
X109931468Y-122341935D01*
X109885112Y-122346500D01*
X108808888Y-122346500D01*
X108762532Y-122341935D01*
X108723862Y-122330204D01*
X108688223Y-122311154D01*
X108656983Y-122285517D01*
X108631346Y-122254277D01*
X108612296Y-122218638D01*
X108600565Y-122179968D01*
X108596000Y-122133612D01*
X108596000Y-121482388D01*
X108600565Y-121436032D01*
X108612296Y-121397362D01*
X108631346Y-121361723D01*
X108656983Y-121330483D01*
X108688223Y-121304846D01*
X108723862Y-121285796D01*
X108762532Y-121274065D01*
X108808888Y-121269500D01*
X109885112Y-121269500D01*
X109931468Y-121274065D01*
X109931468Y-121274065D01*
G37*
G36*
X94695127Y-119412287D02*
G01*
X94864966Y-119463807D01*
X95021491Y-119547472D01*
X95057229Y-119576802D01*
X95158686Y-119660064D01*
X95241948Y-119761521D01*
X95271278Y-119797259D01*
X95354943Y-119953784D01*
X95406463Y-120123623D01*
X95406463Y-120123625D01*
X95419500Y-120255990D01*
X95419500Y-121344510D01*
X95415102Y-121389163D01*
X95406463Y-121476877D01*
X95354943Y-121646716D01*
X95271278Y-121803241D01*
X95241948Y-121838979D01*
X95158686Y-121940436D01*
X95021489Y-122053029D01*
X94894927Y-122120678D01*
X94864965Y-122136693D01*
X94695126Y-122188213D01*
X94518500Y-122205609D01*
X94341873Y-122188213D01*
X94172034Y-122136693D01*
X94015509Y-122053028D01*
X93979771Y-122023698D01*
X93878314Y-121940436D01*
X93765721Y-121803239D01*
X93682058Y-121646717D01*
X93670734Y-121609388D01*
X93630537Y-121476876D01*
X93621898Y-121389163D01*
X93617500Y-121344509D01*
X93617501Y-120255990D01*
X93630538Y-120123625D01*
X93630538Y-120123623D01*
X93682058Y-119953784D01*
X93765723Y-119797259D01*
X93795053Y-119761521D01*
X93878315Y-119660064D01*
X93979772Y-119576802D01*
X94015510Y-119547472D01*
X94172035Y-119463807D01*
X94341874Y-119412287D01*
X94518500Y-119394891D01*
X94695127Y-119412287D01*
X94695127Y-119412287D01*
G37*
G36*
X87395127Y-119412287D02*
G01*
X87564966Y-119463807D01*
X87721491Y-119547472D01*
X87757229Y-119576802D01*
X87858686Y-119660064D01*
X87941948Y-119761521D01*
X87971278Y-119797259D01*
X88054943Y-119953784D01*
X88106463Y-120123623D01*
X88106463Y-120123625D01*
X88119500Y-120255990D01*
X88119500Y-121344510D01*
X88115102Y-121389163D01*
X88106463Y-121476877D01*
X88054943Y-121646716D01*
X87971278Y-121803241D01*
X87941948Y-121838979D01*
X87858686Y-121940436D01*
X87721489Y-122053029D01*
X87594927Y-122120678D01*
X87564965Y-122136693D01*
X87395126Y-122188213D01*
X87218500Y-122205609D01*
X87041873Y-122188213D01*
X86872034Y-122136693D01*
X86715509Y-122053028D01*
X86679771Y-122023698D01*
X86578314Y-121940436D01*
X86465721Y-121803239D01*
X86382058Y-121646717D01*
X86370734Y-121609388D01*
X86330537Y-121476876D01*
X86321898Y-121389163D01*
X86317500Y-121344509D01*
X86317501Y-120255990D01*
X86330538Y-120123625D01*
X86330538Y-120123623D01*
X86382058Y-119953784D01*
X86465723Y-119797259D01*
X86495053Y-119761521D01*
X86578315Y-119660064D01*
X86679772Y-119576802D01*
X86715510Y-119547472D01*
X86872035Y-119463807D01*
X87041874Y-119412287D01*
X87218500Y-119394891D01*
X87395127Y-119412287D01*
X87395127Y-119412287D01*
G37*
G36*
X92769500Y-121976250D02*
G01*
X88967500Y-121976250D01*
X88967500Y-119624250D01*
X92769500Y-119624250D01*
X92769500Y-121976250D01*
X92769500Y-121976250D01*
G37*
G36*
X156552127Y-117694261D02*
G01*
X156572900Y-117696000D01*
X156579827Y-117696000D01*
X156674754Y-117714882D01*
X156678348Y-117715542D01*
X156773730Y-117731624D01*
X156780203Y-117734085D01*
X156800228Y-117739841D01*
X156807027Y-117741193D01*
X156869414Y-117767034D01*
X156896443Y-117778230D01*
X156899844Y-117779581D01*
X156990255Y-117813961D01*
X156996127Y-117817640D01*
X157014636Y-117827187D01*
X157021045Y-117829842D01*
X157101563Y-117883642D01*
X157104554Y-117885578D01*
X157186557Y-117936959D01*
X157191584Y-117941700D01*
X157207896Y-117954691D01*
X157213652Y-117958537D01*
X157282110Y-118026995D01*
X157284689Y-118029499D01*
X157355090Y-118095889D01*
X157359095Y-118101519D01*
X157372559Y-118117444D01*
X157377459Y-118122344D01*
X157431244Y-118202839D01*
X157433291Y-118205807D01*
X157489380Y-118284645D01*
X157492214Y-118290958D01*
X157502308Y-118309193D01*
X157506158Y-118314955D01*
X157543220Y-118404430D01*
X157544624Y-118407685D01*
X157584265Y-118495973D01*
X157585815Y-118502725D01*
X157592152Y-118522562D01*
X157594807Y-118528973D01*
X157613692Y-118623917D01*
X157614438Y-118627401D01*
X157636098Y-118721751D01*
X157636098Y-118721754D01*
X157636300Y-118728654D01*
X157638647Y-118749370D01*
X157640000Y-118756174D01*
X157640000Y-118852986D01*
X157640053Y-118856584D01*
X157641188Y-118895277D01*
X157640295Y-118908225D01*
X157640000Y-118916797D01*
X157640000Y-118987826D01*
X157634081Y-119017585D01*
X157633604Y-119019979D01*
X157631500Y-119035750D01*
X157593238Y-119590545D01*
X157564376Y-119761730D01*
X157482038Y-119978255D01*
X157359041Y-120174557D01*
X157200111Y-120343090D01*
X157011355Y-120477380D01*
X156800027Y-120572265D01*
X156574249Y-120624098D01*
X156342698Y-120630889D01*
X156342697Y-120630889D01*
X156297012Y-120623186D01*
X156114270Y-120592376D01*
X155897745Y-120510038D01*
X155701443Y-120387041D01*
X155532910Y-120228111D01*
X155398620Y-120039355D01*
X155303735Y-119828027D01*
X155251902Y-119602249D01*
X155246812Y-119428723D01*
X155287704Y-118835794D01*
X155288000Y-118827196D01*
X155288000Y-118756175D01*
X155306882Y-118661250D01*
X155307544Y-118657645D01*
X155313231Y-118623917D01*
X155323624Y-118562270D01*
X155326085Y-118555799D01*
X155331842Y-118535767D01*
X155333193Y-118528974D01*
X155335843Y-118522576D01*
X155370264Y-118439476D01*
X155371553Y-118436230D01*
X155405962Y-118345745D01*
X155409636Y-118339881D01*
X155419187Y-118321365D01*
X155421842Y-118314955D01*
X155475657Y-118234415D01*
X155477577Y-118231449D01*
X155528959Y-118149443D01*
X155533711Y-118144404D01*
X155546689Y-118128107D01*
X155550537Y-118122348D01*
X155618993Y-118053892D01*
X155621546Y-118051262D01*
X155642023Y-118029548D01*
X155687889Y-117980910D01*
X155693521Y-117976903D01*
X155709447Y-117963438D01*
X155714346Y-117958539D01*
X155794824Y-117904766D01*
X155797806Y-117902710D01*
X155876645Y-117846620D01*
X155882955Y-117843787D01*
X155901194Y-117833691D01*
X155906951Y-117829844D01*
X155906954Y-117829843D01*
X155906955Y-117829842D01*
X155996429Y-117792781D01*
X155999687Y-117791375D01*
X156087973Y-117751735D01*
X156094725Y-117750185D01*
X156114562Y-117743848D01*
X156120973Y-117741193D01*
X156215899Y-117722311D01*
X156219446Y-117721551D01*
X156313751Y-117699901D01*
X156316130Y-117699831D01*
X156320665Y-117699698D01*
X156341381Y-117697351D01*
X156348174Y-117696000D01*
X156444959Y-117696000D01*
X156448584Y-117695947D01*
X156545302Y-117693110D01*
X156552127Y-117694261D01*
X156552127Y-117694261D01*
G37*
G36*
X137502127Y-117694261D02*
G01*
X137522900Y-117696000D01*
X137529827Y-117696000D01*
X137624754Y-117714882D01*
X137628348Y-117715542D01*
X137723730Y-117731624D01*
X137730203Y-117734085D01*
X137750228Y-117739841D01*
X137757027Y-117741193D01*
X137819414Y-117767034D01*
X137846443Y-117778230D01*
X137849844Y-117779581D01*
X137940255Y-117813961D01*
X137946127Y-117817640D01*
X137964636Y-117827187D01*
X137971045Y-117829842D01*
X138051563Y-117883642D01*
X138054554Y-117885578D01*
X138136557Y-117936959D01*
X138141584Y-117941700D01*
X138157896Y-117954691D01*
X138163652Y-117958537D01*
X138232110Y-118026995D01*
X138234689Y-118029499D01*
X138305090Y-118095889D01*
X138309095Y-118101519D01*
X138322559Y-118117444D01*
X138327459Y-118122344D01*
X138381244Y-118202839D01*
X138383291Y-118205807D01*
X138439380Y-118284645D01*
X138442214Y-118290958D01*
X138452308Y-118309193D01*
X138456158Y-118314955D01*
X138493220Y-118404430D01*
X138494624Y-118407685D01*
X138534265Y-118495973D01*
X138535815Y-118502725D01*
X138542152Y-118522562D01*
X138544807Y-118528973D01*
X138563692Y-118623917D01*
X138564438Y-118627401D01*
X138586098Y-118721751D01*
X138586098Y-118721754D01*
X138586300Y-118728654D01*
X138588647Y-118749370D01*
X138590000Y-118756174D01*
X138590000Y-118852986D01*
X138590053Y-118856584D01*
X138591188Y-118895277D01*
X138590295Y-118908225D01*
X138590000Y-118916797D01*
X138590000Y-118987826D01*
X138584081Y-119017585D01*
X138583604Y-119019979D01*
X138581500Y-119035750D01*
X138543238Y-119590545D01*
X138514376Y-119761730D01*
X138432038Y-119978255D01*
X138309041Y-120174557D01*
X138150111Y-120343090D01*
X137961355Y-120477380D01*
X137750027Y-120572265D01*
X137524249Y-120624098D01*
X137292698Y-120630889D01*
X137292697Y-120630889D01*
X137247012Y-120623186D01*
X137064270Y-120592376D01*
X136847745Y-120510038D01*
X136651443Y-120387041D01*
X136482910Y-120228111D01*
X136348620Y-120039355D01*
X136253735Y-119828027D01*
X136201902Y-119602249D01*
X136196812Y-119428723D01*
X136237704Y-118835794D01*
X136238000Y-118827196D01*
X136238000Y-118756175D01*
X136256882Y-118661250D01*
X136257544Y-118657645D01*
X136263231Y-118623917D01*
X136273624Y-118562270D01*
X136276085Y-118555799D01*
X136281842Y-118535767D01*
X136283193Y-118528974D01*
X136285843Y-118522576D01*
X136320264Y-118439476D01*
X136321553Y-118436230D01*
X136355962Y-118345745D01*
X136359636Y-118339881D01*
X136369187Y-118321365D01*
X136371842Y-118314955D01*
X136425657Y-118234415D01*
X136427577Y-118231449D01*
X136478959Y-118149443D01*
X136483711Y-118144404D01*
X136496689Y-118128107D01*
X136500537Y-118122348D01*
X136568993Y-118053892D01*
X136571546Y-118051262D01*
X136592023Y-118029548D01*
X136637889Y-117980910D01*
X136643521Y-117976903D01*
X136659447Y-117963438D01*
X136664346Y-117958539D01*
X136744824Y-117904766D01*
X136747806Y-117902710D01*
X136826645Y-117846620D01*
X136832955Y-117843787D01*
X136851194Y-117833691D01*
X136856951Y-117829844D01*
X136856954Y-117829843D01*
X136856955Y-117829842D01*
X136946429Y-117792781D01*
X136949687Y-117791375D01*
X137037973Y-117751735D01*
X137044725Y-117750185D01*
X137064562Y-117743848D01*
X137070973Y-117741193D01*
X137165899Y-117722311D01*
X137169446Y-117721551D01*
X137263751Y-117699901D01*
X137266130Y-117699831D01*
X137270665Y-117699698D01*
X137291381Y-117697351D01*
X137298174Y-117696000D01*
X137394959Y-117696000D01*
X137398584Y-117695947D01*
X137495302Y-117693110D01*
X137502127Y-117694261D01*
X137502127Y-117694261D01*
G37*
G36*
X94695127Y-114912287D02*
G01*
X94864966Y-114963807D01*
X95021491Y-115047472D01*
X95057229Y-115076802D01*
X95158686Y-115160064D01*
X95241948Y-115261521D01*
X95271278Y-115297259D01*
X95354943Y-115453784D01*
X95406463Y-115623623D01*
X95419500Y-115755992D01*
X95419500Y-116844508D01*
X95406463Y-116976877D01*
X95354943Y-117146716D01*
X95271278Y-117303241D01*
X95241948Y-117338979D01*
X95158686Y-117440436D01*
X95021489Y-117553029D01*
X94864967Y-117636692D01*
X94864965Y-117636693D01*
X94695126Y-117688213D01*
X94518500Y-117705609D01*
X94341873Y-117688213D01*
X94172034Y-117636693D01*
X94015509Y-117553028D01*
X93979771Y-117523698D01*
X93878314Y-117440436D01*
X93765721Y-117303239D01*
X93682058Y-117146717D01*
X93682057Y-117146715D01*
X93630537Y-116976876D01*
X93617500Y-116844507D01*
X93617501Y-115755992D01*
X93630538Y-115623623D01*
X93682058Y-115453784D01*
X93765723Y-115297259D01*
X93795053Y-115261521D01*
X93878315Y-115160064D01*
X93979772Y-115076802D01*
X94015510Y-115047472D01*
X94172035Y-114963807D01*
X94341874Y-114912287D01*
X94518500Y-114894891D01*
X94695127Y-114912287D01*
X94695127Y-114912287D01*
G37*
G36*
X87395127Y-114912287D02*
G01*
X87564966Y-114963807D01*
X87721491Y-115047472D01*
X87757229Y-115076802D01*
X87858686Y-115160064D01*
X87941948Y-115261521D01*
X87971278Y-115297259D01*
X88054943Y-115453784D01*
X88106463Y-115623623D01*
X88119500Y-115755992D01*
X88119500Y-116844508D01*
X88106463Y-116976877D01*
X88054943Y-117146716D01*
X87971278Y-117303241D01*
X87941948Y-117338979D01*
X87858686Y-117440436D01*
X87721489Y-117553029D01*
X87564967Y-117636692D01*
X87564965Y-117636693D01*
X87395126Y-117688213D01*
X87218500Y-117705609D01*
X87041873Y-117688213D01*
X86872034Y-117636693D01*
X86715509Y-117553028D01*
X86679771Y-117523698D01*
X86578314Y-117440436D01*
X86465721Y-117303239D01*
X86382058Y-117146717D01*
X86382057Y-117146715D01*
X86330537Y-116976876D01*
X86317500Y-116844507D01*
X86317501Y-115755992D01*
X86330538Y-115623623D01*
X86382058Y-115453784D01*
X86465723Y-115297259D01*
X86495053Y-115261521D01*
X86578315Y-115160064D01*
X86679772Y-115076802D01*
X86715510Y-115047472D01*
X86872035Y-114963807D01*
X87041874Y-114912287D01*
X87218500Y-114894891D01*
X87395127Y-114912287D01*
X87395127Y-114912287D01*
G37*
M02*
