G04 #@! TF.GenerationSoftware,KiCad,Pcbnew,(5.1.4)-1*
G04 #@! TF.CreationDate,2020-11-08T14:39:36-05:00*
G04 #@! TF.ProjectId,ai03-pcb-guide,61693033-2d70-4636-922d-67756964652e,rev?*
G04 #@! TF.SameCoordinates,Original*
G04 #@! TF.FileFunction,Soldermask,Top*
G04 #@! TF.FilePolarity,Negative*
%FSLAX46Y46*%
G04 Gerber Fmt 4.6, Leading zero omitted, Abs format (unit mm)*
G04 Created by KiCad (PCBNEW (5.1.4)-1) date 2020-11-08 14:39:36*
%MOMM*%
%LPD*%
G04 APERTURE LIST*
%ADD10C,0.100000*%
G04 APERTURE END LIST*
D10*
G36*
X135470474Y-141035684D02*
G01*
X135688474Y-141125983D01*
X135842623Y-141189833D01*
X136177548Y-141413623D01*
X136462377Y-141698452D01*
X136686167Y-142033377D01*
X136718562Y-142111586D01*
X136840316Y-142405526D01*
X136918900Y-142800594D01*
X136918900Y-143203406D01*
X136840316Y-143598474D01*
X136789451Y-143721272D01*
X136686167Y-143970623D01*
X136462377Y-144305548D01*
X136177548Y-144590377D01*
X135842623Y-144814167D01*
X135688474Y-144878017D01*
X135470474Y-144968316D01*
X135075406Y-145046900D01*
X134672594Y-145046900D01*
X134277526Y-144968316D01*
X134059526Y-144878017D01*
X133905377Y-144814167D01*
X133570452Y-144590377D01*
X133285623Y-144305548D01*
X133061833Y-143970623D01*
X132958549Y-143721272D01*
X132907684Y-143598474D01*
X132829100Y-143203406D01*
X132829100Y-142800594D01*
X132907684Y-142405526D01*
X133029438Y-142111586D01*
X133061833Y-142033377D01*
X133285623Y-141698452D01*
X133570452Y-141413623D01*
X133905377Y-141189833D01*
X134059526Y-141125983D01*
X134277526Y-141035684D01*
X134672594Y-140957100D01*
X135075406Y-140957100D01*
X135470474Y-141035684D01*
X135470474Y-141035684D01*
G37*
G36*
X154520474Y-141035684D02*
G01*
X154738474Y-141125983D01*
X154892623Y-141189833D01*
X155227548Y-141413623D01*
X155512377Y-141698452D01*
X155736167Y-142033377D01*
X155768562Y-142111586D01*
X155890316Y-142405526D01*
X155968900Y-142800594D01*
X155968900Y-143203406D01*
X155890316Y-143598474D01*
X155839451Y-143721272D01*
X155736167Y-143970623D01*
X155512377Y-144305548D01*
X155227548Y-144590377D01*
X154892623Y-144814167D01*
X154738474Y-144878017D01*
X154520474Y-144968316D01*
X154125406Y-145046900D01*
X153722594Y-145046900D01*
X153327526Y-144968316D01*
X153109526Y-144878017D01*
X152955377Y-144814167D01*
X152620452Y-144590377D01*
X152335623Y-144305548D01*
X152111833Y-143970623D01*
X152008549Y-143721272D01*
X151957684Y-143598474D01*
X151879100Y-143203406D01*
X151879100Y-142800594D01*
X151957684Y-142405526D01*
X152079438Y-142111586D01*
X152111833Y-142033377D01*
X152335623Y-141698452D01*
X152620452Y-141413623D01*
X152955377Y-141189833D01*
X153109526Y-141125983D01*
X153327526Y-141035684D01*
X153722594Y-140957100D01*
X154125406Y-140957100D01*
X154520474Y-141035684D01*
X154520474Y-141035684D01*
G37*
G36*
X159274104Y-142111585D02*
G01*
X159442626Y-142181389D01*
X159594291Y-142282728D01*
X159723272Y-142411709D01*
X159824611Y-142563374D01*
X159894415Y-142731896D01*
X159930000Y-142910797D01*
X159930000Y-143093203D01*
X159894415Y-143272104D01*
X159824611Y-143440626D01*
X159723272Y-143592291D01*
X159594291Y-143721272D01*
X159442626Y-143822611D01*
X159274104Y-143892415D01*
X159095203Y-143928000D01*
X158912797Y-143928000D01*
X158733896Y-143892415D01*
X158565374Y-143822611D01*
X158413709Y-143721272D01*
X158284728Y-143592291D01*
X158183389Y-143440626D01*
X158113585Y-143272104D01*
X158078000Y-143093203D01*
X158078000Y-142910797D01*
X158113585Y-142731896D01*
X158183389Y-142563374D01*
X158284728Y-142411709D01*
X158413709Y-142282728D01*
X158565374Y-142181389D01*
X158733896Y-142111585D01*
X158912797Y-142076000D01*
X159095203Y-142076000D01*
X159274104Y-142111585D01*
X159274104Y-142111585D01*
G37*
G36*
X149114104Y-142111585D02*
G01*
X149282626Y-142181389D01*
X149434291Y-142282728D01*
X149563272Y-142411709D01*
X149664611Y-142563374D01*
X149734415Y-142731896D01*
X149770000Y-142910797D01*
X149770000Y-143093203D01*
X149734415Y-143272104D01*
X149664611Y-143440626D01*
X149563272Y-143592291D01*
X149434291Y-143721272D01*
X149282626Y-143822611D01*
X149114104Y-143892415D01*
X148935203Y-143928000D01*
X148752797Y-143928000D01*
X148573896Y-143892415D01*
X148405374Y-143822611D01*
X148253709Y-143721272D01*
X148124728Y-143592291D01*
X148023389Y-143440626D01*
X147953585Y-143272104D01*
X147918000Y-143093203D01*
X147918000Y-142910797D01*
X147953585Y-142731896D01*
X148023389Y-142563374D01*
X148124728Y-142411709D01*
X148253709Y-142282728D01*
X148405374Y-142181389D01*
X148573896Y-142111585D01*
X148752797Y-142076000D01*
X148935203Y-142076000D01*
X149114104Y-142111585D01*
X149114104Y-142111585D01*
G37*
G36*
X140224104Y-142111585D02*
G01*
X140392626Y-142181389D01*
X140544291Y-142282728D01*
X140673272Y-142411709D01*
X140774611Y-142563374D01*
X140844415Y-142731896D01*
X140880000Y-142910797D01*
X140880000Y-143093203D01*
X140844415Y-143272104D01*
X140774611Y-143440626D01*
X140673272Y-143592291D01*
X140544291Y-143721272D01*
X140392626Y-143822611D01*
X140224104Y-143892415D01*
X140045203Y-143928000D01*
X139862797Y-143928000D01*
X139683896Y-143892415D01*
X139515374Y-143822611D01*
X139363709Y-143721272D01*
X139234728Y-143592291D01*
X139133389Y-143440626D01*
X139063585Y-143272104D01*
X139028000Y-143093203D01*
X139028000Y-142910797D01*
X139063585Y-142731896D01*
X139133389Y-142563374D01*
X139234728Y-142411709D01*
X139363709Y-142282728D01*
X139515374Y-142181389D01*
X139683896Y-142111585D01*
X139862797Y-142076000D01*
X140045203Y-142076000D01*
X140224104Y-142111585D01*
X140224104Y-142111585D01*
G37*
G36*
X130064104Y-142111585D02*
G01*
X130232626Y-142181389D01*
X130384291Y-142282728D01*
X130513272Y-142411709D01*
X130614611Y-142563374D01*
X130684415Y-142731896D01*
X130720000Y-142910797D01*
X130720000Y-143093203D01*
X130684415Y-143272104D01*
X130614611Y-143440626D01*
X130513272Y-143592291D01*
X130384291Y-143721272D01*
X130232626Y-143822611D01*
X130064104Y-143892415D01*
X129885203Y-143928000D01*
X129702797Y-143928000D01*
X129523896Y-143892415D01*
X129355374Y-143822611D01*
X129203709Y-143721272D01*
X129074728Y-143592291D01*
X128973389Y-143440626D01*
X128903585Y-143272104D01*
X128868000Y-143093203D01*
X128868000Y-142910797D01*
X128903585Y-142731896D01*
X128973389Y-142563374D01*
X129074728Y-142411709D01*
X129203709Y-142282728D01*
X129355374Y-142181389D01*
X129523896Y-142111585D01*
X129702797Y-142076000D01*
X129885203Y-142076000D01*
X130064104Y-142111585D01*
X130064104Y-142111585D01*
G37*
G36*
X135470474Y-121985684D02*
G01*
X135633059Y-122053029D01*
X135842623Y-122139833D01*
X136177548Y-122363623D01*
X136462377Y-122648452D01*
X136686167Y-122983377D01*
X136718562Y-123061586D01*
X136840316Y-123355526D01*
X136918900Y-123750594D01*
X136918900Y-124153406D01*
X136840316Y-124548474D01*
X136789451Y-124671272D01*
X136686167Y-124920623D01*
X136462377Y-125255548D01*
X136177548Y-125540377D01*
X135842623Y-125764167D01*
X135688474Y-125828017D01*
X135470474Y-125918316D01*
X135075406Y-125996900D01*
X134672594Y-125996900D01*
X134277526Y-125918316D01*
X134059526Y-125828017D01*
X133905377Y-125764167D01*
X133570452Y-125540377D01*
X133285623Y-125255548D01*
X133061833Y-124920623D01*
X132958549Y-124671272D01*
X132907684Y-124548474D01*
X132829100Y-124153406D01*
X132829100Y-123750594D01*
X132907684Y-123355526D01*
X133029438Y-123061586D01*
X133061833Y-122983377D01*
X133285623Y-122648452D01*
X133570452Y-122363623D01*
X133905377Y-122139833D01*
X134114941Y-122053029D01*
X134277526Y-121985684D01*
X134672594Y-121907100D01*
X135075406Y-121907100D01*
X135470474Y-121985684D01*
X135470474Y-121985684D01*
G37*
G36*
X154520474Y-121985684D02*
G01*
X154683059Y-122053029D01*
X154892623Y-122139833D01*
X155227548Y-122363623D01*
X155512377Y-122648452D01*
X155736167Y-122983377D01*
X155768562Y-123061586D01*
X155890316Y-123355526D01*
X155968900Y-123750594D01*
X155968900Y-124153406D01*
X155890316Y-124548474D01*
X155839451Y-124671272D01*
X155736167Y-124920623D01*
X155512377Y-125255548D01*
X155227548Y-125540377D01*
X154892623Y-125764167D01*
X154738474Y-125828017D01*
X154520474Y-125918316D01*
X154125406Y-125996900D01*
X153722594Y-125996900D01*
X153327526Y-125918316D01*
X153109526Y-125828017D01*
X152955377Y-125764167D01*
X152620452Y-125540377D01*
X152335623Y-125255548D01*
X152111833Y-124920623D01*
X152008549Y-124671272D01*
X151957684Y-124548474D01*
X151879100Y-124153406D01*
X151879100Y-123750594D01*
X151957684Y-123355526D01*
X152079438Y-123061586D01*
X152111833Y-122983377D01*
X152335623Y-122648452D01*
X152620452Y-122363623D01*
X152955377Y-122139833D01*
X153164941Y-122053029D01*
X153327526Y-121985684D01*
X153722594Y-121907100D01*
X154125406Y-121907100D01*
X154520474Y-121985684D01*
X154520474Y-121985684D01*
G37*
G36*
X140224104Y-123061585D02*
G01*
X140392626Y-123131389D01*
X140544291Y-123232728D01*
X140673272Y-123361709D01*
X140774611Y-123513374D01*
X140844415Y-123681896D01*
X140880000Y-123860797D01*
X140880000Y-124043203D01*
X140844415Y-124222104D01*
X140774611Y-124390626D01*
X140673272Y-124542291D01*
X140544291Y-124671272D01*
X140392626Y-124772611D01*
X140224104Y-124842415D01*
X140045203Y-124878000D01*
X139862797Y-124878000D01*
X139683896Y-124842415D01*
X139515374Y-124772611D01*
X139363709Y-124671272D01*
X139234728Y-124542291D01*
X139133389Y-124390626D01*
X139063585Y-124222104D01*
X139028000Y-124043203D01*
X139028000Y-123860797D01*
X139063585Y-123681896D01*
X139133389Y-123513374D01*
X139234728Y-123361709D01*
X139363709Y-123232728D01*
X139515374Y-123131389D01*
X139683896Y-123061585D01*
X139862797Y-123026000D01*
X140045203Y-123026000D01*
X140224104Y-123061585D01*
X140224104Y-123061585D01*
G37*
G36*
X130064104Y-123061585D02*
G01*
X130232626Y-123131389D01*
X130384291Y-123232728D01*
X130513272Y-123361709D01*
X130614611Y-123513374D01*
X130684415Y-123681896D01*
X130720000Y-123860797D01*
X130720000Y-124043203D01*
X130684415Y-124222104D01*
X130614611Y-124390626D01*
X130513272Y-124542291D01*
X130384291Y-124671272D01*
X130232626Y-124772611D01*
X130064104Y-124842415D01*
X129885203Y-124878000D01*
X129702797Y-124878000D01*
X129523896Y-124842415D01*
X129355374Y-124772611D01*
X129203709Y-124671272D01*
X129074728Y-124542291D01*
X128973389Y-124390626D01*
X128903585Y-124222104D01*
X128868000Y-124043203D01*
X128868000Y-123860797D01*
X128903585Y-123681896D01*
X128973389Y-123513374D01*
X129074728Y-123361709D01*
X129203709Y-123232728D01*
X129355374Y-123131389D01*
X129523896Y-123061585D01*
X129702797Y-123026000D01*
X129885203Y-123026000D01*
X130064104Y-123061585D01*
X130064104Y-123061585D01*
G37*
G36*
X149114104Y-123061585D02*
G01*
X149282626Y-123131389D01*
X149434291Y-123232728D01*
X149563272Y-123361709D01*
X149664611Y-123513374D01*
X149734415Y-123681896D01*
X149770000Y-123860797D01*
X149770000Y-124043203D01*
X149734415Y-124222104D01*
X149664611Y-124390626D01*
X149563272Y-124542291D01*
X149434291Y-124671272D01*
X149282626Y-124772611D01*
X149114104Y-124842415D01*
X148935203Y-124878000D01*
X148752797Y-124878000D01*
X148573896Y-124842415D01*
X148405374Y-124772611D01*
X148253709Y-124671272D01*
X148124728Y-124542291D01*
X148023389Y-124390626D01*
X147953585Y-124222104D01*
X147918000Y-124043203D01*
X147918000Y-123860797D01*
X147953585Y-123681896D01*
X148023389Y-123513374D01*
X148124728Y-123361709D01*
X148253709Y-123232728D01*
X148405374Y-123131389D01*
X148573896Y-123061585D01*
X148752797Y-123026000D01*
X148935203Y-123026000D01*
X149114104Y-123061585D01*
X149114104Y-123061585D01*
G37*
G36*
X159274104Y-123061585D02*
G01*
X159442626Y-123131389D01*
X159594291Y-123232728D01*
X159723272Y-123361709D01*
X159824611Y-123513374D01*
X159894415Y-123681896D01*
X159930000Y-123860797D01*
X159930000Y-124043203D01*
X159894415Y-124222104D01*
X159824611Y-124390626D01*
X159723272Y-124542291D01*
X159594291Y-124671272D01*
X159442626Y-124772611D01*
X159274104Y-124842415D01*
X159095203Y-124878000D01*
X158912797Y-124878000D01*
X158733896Y-124842415D01*
X158565374Y-124772611D01*
X158413709Y-124671272D01*
X158284728Y-124542291D01*
X158183389Y-124390626D01*
X158113585Y-124222104D01*
X158078000Y-124043203D01*
X158078000Y-123860797D01*
X158113585Y-123681896D01*
X158183389Y-123513374D01*
X158284728Y-123361709D01*
X158413709Y-123232728D01*
X158565374Y-123131389D01*
X158733896Y-123061585D01*
X158912797Y-123026000D01*
X159095203Y-123026000D01*
X159274104Y-123061585D01*
X159274104Y-123061585D01*
G37*
G36*
X87395127Y-119412287D02*
G01*
X87564966Y-119463807D01*
X87721491Y-119547472D01*
X87757229Y-119576802D01*
X87858686Y-119660064D01*
X87941948Y-119761521D01*
X87971278Y-119797259D01*
X88054943Y-119953784D01*
X88106463Y-120123623D01*
X88119500Y-120255992D01*
X88119500Y-121344508D01*
X88106463Y-121476877D01*
X88054943Y-121646716D01*
X87971278Y-121803241D01*
X87941948Y-121838979D01*
X87858686Y-121940436D01*
X87721489Y-122053029D01*
X87564967Y-122136692D01*
X87564965Y-122136693D01*
X87395126Y-122188213D01*
X87218500Y-122205609D01*
X87041873Y-122188213D01*
X86872034Y-122136693D01*
X86715509Y-122053028D01*
X86679771Y-122023698D01*
X86578314Y-121940436D01*
X86465721Y-121803239D01*
X86382058Y-121646717D01*
X86382057Y-121646715D01*
X86330537Y-121476876D01*
X86317500Y-121344507D01*
X86317501Y-120255992D01*
X86330538Y-120123623D01*
X86382058Y-119953784D01*
X86465723Y-119797259D01*
X86495053Y-119761521D01*
X86578315Y-119660064D01*
X86679772Y-119576802D01*
X86715510Y-119547472D01*
X86872035Y-119463807D01*
X87041874Y-119412287D01*
X87218500Y-119394891D01*
X87395127Y-119412287D01*
X87395127Y-119412287D01*
G37*
G36*
X94695127Y-119412287D02*
G01*
X94864966Y-119463807D01*
X95021491Y-119547472D01*
X95057229Y-119576802D01*
X95158686Y-119660064D01*
X95241948Y-119761521D01*
X95271278Y-119797259D01*
X95354943Y-119953784D01*
X95406463Y-120123623D01*
X95419500Y-120255992D01*
X95419500Y-121344508D01*
X95406463Y-121476877D01*
X95354943Y-121646716D01*
X95271278Y-121803241D01*
X95241948Y-121838979D01*
X95158686Y-121940436D01*
X95021489Y-122053029D01*
X94864967Y-122136692D01*
X94864965Y-122136693D01*
X94695126Y-122188213D01*
X94518500Y-122205609D01*
X94341873Y-122188213D01*
X94172034Y-122136693D01*
X94015509Y-122053028D01*
X93979771Y-122023698D01*
X93878314Y-121940436D01*
X93765721Y-121803239D01*
X93682058Y-121646717D01*
X93682057Y-121646715D01*
X93630537Y-121476876D01*
X93617500Y-121344507D01*
X93617501Y-120255992D01*
X93630538Y-120123623D01*
X93682058Y-119953784D01*
X93765723Y-119797259D01*
X93795053Y-119761521D01*
X93878315Y-119660064D01*
X93979772Y-119576802D01*
X94015510Y-119547472D01*
X94172035Y-119463807D01*
X94341874Y-119412287D01*
X94518500Y-119394891D01*
X94695127Y-119412287D01*
X94695127Y-119412287D01*
G37*
G36*
X87395127Y-114912287D02*
G01*
X87564966Y-114963807D01*
X87721491Y-115047472D01*
X87757229Y-115076802D01*
X87858686Y-115160064D01*
X87941948Y-115261521D01*
X87971278Y-115297259D01*
X88054943Y-115453784D01*
X88106463Y-115623623D01*
X88119500Y-115755992D01*
X88119500Y-116844508D01*
X88106463Y-116976877D01*
X88054943Y-117146716D01*
X87971278Y-117303241D01*
X87941948Y-117338979D01*
X87858686Y-117440436D01*
X87721489Y-117553029D01*
X87564967Y-117636692D01*
X87564965Y-117636693D01*
X87395126Y-117688213D01*
X87218500Y-117705609D01*
X87041873Y-117688213D01*
X86872034Y-117636693D01*
X86715509Y-117553028D01*
X86679771Y-117523698D01*
X86578314Y-117440436D01*
X86465721Y-117303239D01*
X86382058Y-117146717D01*
X86382057Y-117146715D01*
X86330537Y-116976876D01*
X86317500Y-116844507D01*
X86317501Y-115755992D01*
X86330538Y-115623623D01*
X86382058Y-115453784D01*
X86465723Y-115297259D01*
X86495053Y-115261521D01*
X86578315Y-115160064D01*
X86679772Y-115076802D01*
X86715510Y-115047472D01*
X86872035Y-114963807D01*
X87041874Y-114912287D01*
X87218500Y-114894891D01*
X87395127Y-114912287D01*
X87395127Y-114912287D01*
G37*
G36*
X94695127Y-114912287D02*
G01*
X94864966Y-114963807D01*
X95021491Y-115047472D01*
X95057229Y-115076802D01*
X95158686Y-115160064D01*
X95241948Y-115261521D01*
X95271278Y-115297259D01*
X95354943Y-115453784D01*
X95406463Y-115623623D01*
X95419500Y-115755992D01*
X95419500Y-116844508D01*
X95406463Y-116976877D01*
X95354943Y-117146716D01*
X95271278Y-117303241D01*
X95241948Y-117338979D01*
X95158686Y-117440436D01*
X95021489Y-117553029D01*
X94864967Y-117636692D01*
X94864965Y-117636693D01*
X94695126Y-117688213D01*
X94518500Y-117705609D01*
X94341873Y-117688213D01*
X94172034Y-117636693D01*
X94015509Y-117553028D01*
X93979771Y-117523698D01*
X93878314Y-117440436D01*
X93765721Y-117303239D01*
X93682058Y-117146717D01*
X93682057Y-117146715D01*
X93630537Y-116976876D01*
X93617500Y-116844507D01*
X93617501Y-115755992D01*
X93630538Y-115623623D01*
X93682058Y-115453784D01*
X93765723Y-115297259D01*
X93795053Y-115261521D01*
X93878315Y-115160064D01*
X93979772Y-115076802D01*
X94015510Y-115047472D01*
X94172035Y-114963807D01*
X94341874Y-114912287D01*
X94518500Y-114894891D01*
X94695127Y-114912287D01*
X94695127Y-114912287D01*
G37*
M02*
